<?xml version="1.0" encoding="UTF-8" standalone="no"?>
<!-- Created with Inkscape (http://www.inkscape.org/) -->

<svg
   version="1.1"
   id="svg2"
   xml:space="preserve"
   width="1512.8855"
   height="949.32336"
   viewBox="0 0 1512.8855 949.32337"
   sodipodi:docname="547f59b25950ddf0a84a20e55381888d.eps"
   xmlns:inkscape="http://www.inkscape.org/namespaces/inkscape"
   xmlns:sodipodi="http://sodipodi.sourceforge.net/DTD/sodipodi-0.dtd"
   xmlns="http://www.w3.org/2000/svg"
   xmlns:svg="http://www.w3.org/2000/svg"><defs
     id="defs6"><clipPath
       clipPathUnits="userSpaceOnUse"
       id="clipPath58"><path
         d="M 2232.33,3502.49 H 838.406 l 0.016,812.22 304.718,-11.32 271.15,71.99 472.38,-395.2 129.08,342.63 283.69,97.16 c 50.48,-110.1 130.97,-203.58 230.97,-269.97 h -180.18 c -0.63,0.01 -1.26,0.01 -1.89,0.01 -62.95,0 -114.59,-50.3 -116.01,-113.47 l 0.06,-11.24 c -0.04,-1.34 -0.06,-2.69 -0.06,-4.04 V 3502.49 M 5115.19,4150 h -813.03 l 288.91,314.61 190.39,194.38 194.41,39.69 139.32,224.29 V 4150 m -832.17,0 H 3244.85 c 122.35,81.04 213.37,201.45 258.28,340.45 l 223.36,-50.92 200.53,-192.98 219.6,301.95 136.4,-398.5 m -2215.08,311.33 13.57,36.01 46.43,-15.46 -60,-20.55"
         id="path56" /></clipPath></defs><sodipodi:namedview
     id="namedview4"
     pagecolor="#ffffff"
     bordercolor="#666666"
     borderopacity="1.0"
     inkscape:pageshadow="2"
     inkscape:pageopacity="0.0"
     inkscape:pagecheckerboard="0" /><g
     id="g8"
     inkscape:groupmode="layer"
     inkscape:label="ink_ext_XXXXXX"
     transform="matrix(1.3333333,0,0,-1.3333333,-2.4298048e-4,949.32322)"><g
       id="g10"
       transform="scale(0.1)"><path
         d="m 230.246,3068.5 c 37.113,663.43 707.227,3094.14 2507.454,3262.91 221.75,20.79 619.62,12.56 1084.58,4.33 996.98,-17.65 2302.44,-35.29 2841.67,233.12 C 9650.01,8055.2 10777.5,6246.54 11250.1,4553.29 11648.3,3126.97 10746.4,922.32 9793.93,1477.18 8946.14,1971.09 8732.06,1416.64 8426.45,862.191 8115.93,298.852 7710.91,-264.5 6450.66,271.781 4801.37,973.609 3986.46,502.762 3219.9,400.371 1193.17,129.59 165.957,1919.25 230.246,3068.5"
         style="fill:#f5f8fa;fill-opacity:1;fill-rule:nonzero;stroke:none"
         id="path12" /><path
         d="m 7022.07,540.789 c -231.2,141.223 -528.83,269.34 -634.95,463.591 -176.13,322.32 -106.14,758.47 -106.14,758.47 h -967.13 c 0,0 69.99,-436.15 -106.13,-758.47 C 5101.57,810.141 4803.96,682.012 4572.76,540.789 4468.19,476.922 4515.57,421.66 4639.56,421.66 h 2315.7 c 124,-0.058 171.39,55.262 66.81,119.129"
         style="fill:#dad6df;fill-opacity:1;fill-rule:nonzero;stroke:none"
         id="path14" /><path
         d="m 1905.37,2457.56 v 4150.12 c 0.17,55.97 45.5,101.3 101.47,101.46 h 7581.15 c 55.97,-0.16 101.31,-45.49 101.46,-101.46 V 2457.56 H 1905.37"
         style="fill:#33414b;fill-opacity:1;fill-rule:nonzero;stroke:none"
         id="path16" /><path
         d="M 9587.99,1763.01 H 2006.84 c -55.97,0.16 -101.3,45.49 -101.47,101.47 v 602.73 h 7784.07 v -602.73 c -0.15,-55.97 -45.48,-101.3 -101.45,-101.47"
         style="fill:#ffffff;fill-opacity:1;fill-rule:nonzero;stroke:none"
         id="path18" /><path
         d="m 2220.13,6461.71 h 7154.56 c 47.39,0 85.81,-38.41 85.81,-85.81 V 2825.77 c 0,-47.4 -38.42,-85.81 -85.81,-85.81 H 2220.13 c -47.4,0 -85.81,38.41 -85.81,85.81 V 6375.9 c 0,47.4 38.41,85.81 85.81,85.81"
         style="fill:#ffffff;fill-opacity:1;fill-rule:nonzero;stroke:none"
         id="path20" /><path
         d="m 7921.24,3245.65 c -545.99,-0.84 -989.3,441.1 -990.13,987.1 -0.41,263.05 104.05,515.41 290.22,701.23 l 226.98,-227.71 c -260.69,-260.65 -260.72,-683.29 -0.07,-943.98 238.86,-238.89 618.54,-261.67 884.24,-53.05 l 198.56,-252.83 c -173.81,-136.79 -388.63,-211.02 -609.8,-210.76"
         style="fill:#87c061;fill-opacity:1;fill-rule:nonzero;stroke:none"
         id="path22" /><path
         d="m 8595.98,3527.61 -198.56,252.83 c 139.6,109.01 229.79,269.34 250.44,445.25 l 319.17,-38.38 c -30.61,-260.63 -164.23,-498.17 -371.05,-659.7"
         style="fill:#7558b1;fill-opacity:1;fill-rule:nonzero;stroke:none"
         id="path24" /><path
         d="m 8645.83,4358.46 c -41.73,366.35 -372.55,629.5 -738.9,587.78 -122.85,-14 -239.39,-61.84 -336.66,-138.18 l -198.54,252.79 c 429.68,337.32 1051.45,262.45 1388.77,-167.22 113.23,-144.24 184.14,-317.12 204.79,-499.33 l -319.46,-35.84"
         style="fill:#f7a848;fill-opacity:1;fill-rule:nonzero;stroke:none"
         id="path26" /><path
         d="m 4333.04,6249.57 h 2928.75 c 47.39,0 85.81,-38.42 85.81,-85.81 v -31 c 0,-47.4 -38.42,-85.82 -85.81,-85.82 H 4333.04 c -47.4,0 -85.82,38.42 -85.82,85.82 v 31 c 0,47.39 38.42,85.81 85.82,85.81"
         style="fill:#e8eaf7;fill-opacity:1;fill-rule:nonzero;stroke:none"
         id="path28" /><path
         d="m 3668.81,5863.61 h 4257.2 c 47.39,0 85.82,-38.42 85.82,-85.81 v -31 c 0,-47.4 -38.43,-85.82 -85.82,-85.82 h -4257.2 c -47.39,0 -85.82,38.42 -85.82,85.82 v 31 c 0,47.39 38.43,85.81 85.82,85.81"
         style="fill:#e8eaf7;fill-opacity:1;fill-rule:nonzero;stroke:none"
         id="path30" /><path
         d="M 5756.86,5024.17 H 2599.62 c -47.39,0 -85.81,38.41 -85.81,85.81 v 31 c 0,47.39 38.42,85.81 85.81,85.81 h 3157.24 c 47.39,0 85.81,-38.42 85.81,-85.81 v -31 c 0,-47.4 -38.42,-85.81 -85.81,-85.81"
         style="fill:#e8eaf7;fill-opacity:1;fill-rule:nonzero;stroke:none"
         id="path32" /><path
         d="M 6268.24,4647.86 H 2599.62 c -47.39,0 -85.81,38.41 -85.81,85.81 v 31 c 0,47.4 38.42,85.81 85.81,85.81 h 3668.62 c 47.39,0 85.82,-38.41 85.82,-85.81 v -31 c 0,-47.4 -38.43,-85.81 -85.82,-85.81"
         style="fill:#e8eaf7;fill-opacity:1;fill-rule:nonzero;stroke:none"
         id="path34" /><path
         d="M 6268.24,4281.21 H 2599.62 c -47.39,0 -85.81,38.41 -85.81,85.81 v 31 c 0,47.4 38.42,85.81 85.81,85.81 h 3668.62 c 47.39,0 85.82,-38.41 85.82,-85.81 v -31 c 0,-47.4 -38.43,-85.81 -85.82,-85.81"
         style="fill:#e8eaf7;fill-opacity:1;fill-rule:nonzero;stroke:none"
         id="path36" /><path
         d="M 540.891,5484.08 H 5305.44 c 71.09,0 128.72,-57.63 128.72,-128.73 V 2615.94 c 0,-71.09 -57.63,-128.72 -128.72,-128.72 H 540.891 c -71.09,0 -128.723,57.63 -128.723,128.72 v 2739.41 c 0,71.1 57.633,128.73 128.723,128.73"
         style="fill:#e8eaf7;fill-opacity:1;fill-rule:nonzero;stroke:none"
         id="path38" /><path
         d="M 594.527,5484.08 H 5359.07 c 71.1,0 128.72,-57.63 128.72,-128.73 V 2669.59 c 0,-71.09 -57.62,-128.72 -128.72,-128.72 H 594.527 c -71.093,0 -128.718,57.63 -128.718,128.72 v 2685.76 c 0,71.1 57.625,128.73 128.718,128.73"
         style="fill:#ffffff;fill-opacity:1;fill-rule:nonzero;stroke:none"
         id="path40" /><path
         d="m 466.863,5169.8 -1.07,191.19 c 1.555,69.21 58.687,124.19 127.91,123.09 H 5359.9 c 69.22,1.1 126.35,-53.88 127.9,-123.09 l -1.79,-191.19 H 466.863"
         style="fill:#4f4d80;fill-opacity:1;fill-rule:nonzero;stroke:none"
         id="path42" /><path
         d="m 698.523,5384.79 c 31.946,0 57.852,-25.9 57.852,-57.85 0,-31.95 -25.906,-57.85 -57.852,-57.85 -31.949,0 -57.847,25.9 -57.847,57.85 0,31.95 25.898,57.85 57.847,57.85"
         style="fill:#ef308d;fill-opacity:1;fill-rule:nonzero;stroke:none"
         id="path44" /><path
         d="m 926.082,5384.79 c 31.945,0 57.852,-25.9 57.852,-57.85 0,-31.95 -25.907,-57.85 -57.852,-57.85 -31.949,0 -57.848,25.9 -57.848,57.85 0,31.95 25.899,57.85 57.848,57.85"
         style="fill:#f8aa3b;fill-opacity:1;fill-rule:nonzero;stroke:none"
         id="path46" /><path
         d="m 1153.64,5384.79 c 31.95,0 57.85,-25.9 57.85,-57.85 0,-31.95 -25.9,-57.85 -57.85,-57.85 -31.95,0 -57.85,25.9 -57.85,57.85 0,31.95 25.9,57.85 57.85,57.85"
         style="fill:#8fcf23;fill-opacity:1;fill-rule:nonzero;stroke:none"
         id="path48" /><path
         d="m 1886.67,3980.18 -472.38,395.2 -271.15,-71.99 -305.167,11.33 0.89,24.09 301.567,-11.18 279.74,74.3 455.89,-381.41 191.05,507.06 378.25,-125.9 495.7,241.69 797.35,-181.77 185.38,-178.44 230.63,317.08 143.53,-419.2 275.67,300.2 195.8,199.9 191.45,39.09 144.08,231.94 20.48,-12.71 -149.56,-240.78 -194.41,-39.69 -190.39,-194.38 -302.85,-329.8 -141.6,413.69 -219.6,-301.95 -200.53,192.98 -782.53,178.4 -496.91,-242.29 -365.54,121.7 -194.84,-517.16"
         style="fill:#7558b1;fill-opacity:1;fill-rule:nonzero;stroke:none"
         id="path50" /><g
         id="g52"><g
           id="g54"
           clip-path="url(#clipPath58)"><path
             d="m 838.406,3502.49 h 4276.79 V 4922.97 H 838.406 Z"
             style="fill:#ebdef1;fill-opacity:1;fill-rule:nonzero;stroke:none"
             id="path60" /></g></g><path
         d="m 1886.67,3980.18 -472.38,395.2 -271.15,-71.99 -304.718,11.32 v 12.01 l 303.368,-11.25 275.45,73.16 464.14,-388.31 119.58,317.43 14.79,5.06 -129.08,-342.63 M 4302.16,4150 h -19.14 l -136.4,398.5 -219.6,-301.95 -200.53,192.98 -223.36,50.92 c 1.24,3.84 2.44,7.68 3.61,11.54 l 225.73,-51.46 192.93,-185.71 225.1,309.52 142.58,-416.44 289.4,315.15 192.95,196.96 192.93,39.4 146.83,236.36 v -22.8 L 4975.87,4698.68 4781.46,4658.99 4591.07,4464.61 4302.16,4150 m -2249.02,306.26 21.17,56.18 72.44,-24.12 -18.81,-6.44 -46.43,15.46 -13.57,-36.01 -14.8,-5.07"
         style="fill:#7558b1;fill-opacity:1;fill-rule:nonzero;stroke:none"
         id="path62" /><path
         d="m 2092.67,3332.23 h 1974.25 c 52.18,0 94.5,-42.3 94.5,-94.5 v -13.62 c 0,-52.19 -42.32,-94.51 -94.5,-94.51 H 2092.67 c -52.2,0 -94.5,42.32 -94.5,94.51 v 13.62 c 0,52.2 42.3,94.5 94.5,94.5"
         style="fill:#e8eaf7;fill-opacity:1;fill-rule:nonzero;stroke:none"
         id="path64" /><path
         d="m 1630.91,2970.59 h 2897.74 c 55.96,0 101.32,-45.36 101.32,-101.32 0,-55.94 -45.36,-101.31 -101.32,-101.31 H 1630.91 c -55.96,0 -101.32,45.37 -101.32,101.31 0,55.96 45.36,101.32 101.32,101.32"
         style="fill:#e8eaf7;fill-opacity:1;fill-rule:nonzero;stroke:none"
         id="path66" /><path
         d="m 2372.05,4334.74 -44.49,85.57 567.04,294.86 604.99,-121.22 -18.94,-94.56 -571.74,114.51 -536.86,-279.16"
         style="fill:#7558b1;fill-opacity:1;fill-rule:nonzero;stroke:none"
         id="path68" /><path
         d="m 2414.68,4149.99 h 4371.64 c 71.09,0 128.72,-57.64 128.72,-128.73 V 1512.15 c 0,-71.09 -57.63,-128.72 -128.72,-128.72 H 2414.68 c -71.08,0 -128.72,57.63 -128.72,128.72 v 2509.11 c 0,71.09 57.64,128.73 128.72,128.73"
         style="fill:#e8eaf7;fill-opacity:1;fill-rule:nonzero;stroke:none"
         id="path70" /><path
         d="m 2361.05,4149.99 h 4371.64 c 71.09,0 128.72,-57.64 128.72,-128.73 V 1565.78 c 0,-71.1 -57.63,-128.72 -128.72,-128.72 H 2361.05 c -71.09,0 -128.72,57.62 -128.72,128.72 v 2455.48 c 0,71.09 57.63,128.73 128.72,128.73"
         style="fill:#ffffff;fill-opacity:1;fill-rule:nonzero;stroke:none"
         id="path72" /><path
         d="m 2233.3,3860.3 -0.97,176.24 c 1.43,63.8 54.09,114.47 117.9,113.46 h 4393.28 c 63.81,1.01 116.46,-49.66 117.9,-113.46 l -1.66,-176.24 H 2233.3"
         style="fill:#4f4d80;fill-opacity:1;fill-rule:nonzero;stroke:none"
         id="path74" /><path
         d="m 2433.46,4058.46 c 29.44,0 53.32,-23.87 53.32,-53.32 0,-29.45 -23.88,-53.33 -53.32,-53.33 -29.45,0 -53.33,23.88 -53.33,53.33 0,29.45 23.88,53.32 53.33,53.32"
         style="fill:#ef308d;fill-opacity:1;fill-rule:nonzero;stroke:none"
         id="path76" /><path
         d="m 2643.2,4058.46 c 29.46,0 53.33,-23.87 53.33,-53.32 0,-29.45 -23.87,-53.33 -53.33,-53.33 -29.44,0 -53.32,23.88 -53.32,53.33 0,29.45 23.88,53.32 53.32,53.32"
         style="fill:#f8aa3b;fill-opacity:1;fill-rule:nonzero;stroke:none"
         id="path78" /><path
         d="m 2852.96,4058.46 c 29.45,0 53.32,-23.87 53.32,-53.32 0,-29.45 -23.87,-53.33 -53.32,-53.33 -29.45,0 -53.32,23.88 -53.32,53.33 0,29.45 23.87,53.32 53.32,53.32"
         style="fill:#8fcf23;fill-opacity:1;fill-rule:nonzero;stroke:none"
         id="path80" /><path
         d="m 2723.89,2418.34 h 286.02 v -756.63 h -286.02 v 756.63"
         style="fill:#edecf8;fill-opacity:1;fill-rule:nonzero;stroke:none"
         id="path82" /><path
         d="m 2723.89,2100.75 h 286.02 v -439.04 h -286.02 v 439.04"
         style="fill:#d4d0ec;fill-opacity:1;fill-rule:nonzero;stroke:none"
         id="path84" /><path
         d="m 3295.96,2629.98 h 286.02 v -968.27 h -286.02 v 968.27"
         style="fill:#d9c9e8;fill-opacity:1;fill-rule:nonzero;stroke:none"
         id="path86" /><path
         d="m 3295.96,2342.45 h 286.02 v -680.74 h -286.02 v 680.74"
         style="fill:#7558b1;fill-opacity:1;fill-rule:nonzero;stroke:none"
         id="path88" /><path
         d="m 3868.03,3112.59 h 286.02 V 1661.71 h -286.02 v 1450.88"
         style="fill:#edecf8;fill-opacity:1;fill-rule:nonzero;stroke:none"
         id="path90" /><path
         d="m 3868.03,2839.02 h 286.02 V 1661.71 h -286.02 v 1177.31"
         style="fill:#d4d0ec;fill-opacity:1;fill-rule:nonzero;stroke:none"
         id="path92" /><path
         d="m 4440.09,2636.68 h 286.02 v -974.97 h -286.02 v 974.97"
         style="fill:#d9c9e8;fill-opacity:1;fill-rule:nonzero;stroke:none"
         id="path94" /><path
         d="m 4440.09,2395.04 h 286.02 v -733.33 h -286.02 v 733.33"
         style="fill:#7558b1;fill-opacity:1;fill-rule:nonzero;stroke:none"
         id="path96" /><path
         d="m 5012.16,3183.88 h 286.02 V 1661.71 h -286.02 v 1522.17"
         style="fill:#edecf8;fill-opacity:1;fill-rule:nonzero;stroke:none"
         id="path98" /><path
         d="m 5012.16,2897.76 h 286.02 V 1661.71 h -286.02 v 1236.05"
         style="fill:#d4d0ec;fill-opacity:1;fill-rule:nonzero;stroke:none"
         id="path100" /><path
         d="m 5584.23,3396.43 h 286.03 V 1661.71 h -286.03 v 1734.72"
         style="fill:#d9c9e8;fill-opacity:1;fill-rule:nonzero;stroke:none"
         id="path102" /><path
         d="m 5584.23,3250.01 h 286.03 v -1588.3 h -286.03 v 1588.3"
         style="fill:#7558b1;fill-opacity:1;fill-rule:nonzero;stroke:none"
         id="path104" /><path
         d="M 6227.79,1698.39 H 2665.18 c -12.08,0 -37.07,4.99 -48.27,0 -1.99,-0.31 -4.01,-0.31 -5.99,0 v -40.18 h 3562.63 c 12.09,0 37.09,-4.99 48.27,0 1.98,0.31 3.99,0.31 5.97,0 v 40.18"
         style="fill:#d4d0ec;fill-opacity:1;fill-rule:nonzero;stroke:none"
         id="path106" /><path
         d="m 2726.12,2737.11 -12.44,20.64 1292.99,779.47 551.25,-651.48 935.26,796.05 15.62,-18.36 -953.61,-811.72 -553.62,654.28 -1275.45,-768.88"
         style="fill:#d4d0ec;fill-opacity:1;fill-rule:nonzero;stroke:none"
         id="path108" /><path
         d="m 5358.55,3673.37 264.83,81.88 -133.12,-215.62 z"
         style="fill:#d4d0ec;fill-opacity:1;fill-rule:nonzero;stroke:none"
         id="path110" /><path
         d="m 10107.6,550.93 c 505.2,98.211 936.2,67.351 962.7,-68.93 26.5,-136.281 -361.6,-326.371 -866.8,-424.5781 -505.27,-98.211 -936.32,-67.35159 -962.81,68.9301 -26.49,136.277 361.62,326.367 866.91,424.578"
         style="fill:#eef2f6;fill-opacity:1;fill-rule:nonzero;stroke:none"
         id="path112" /><path
         d="m 10054.6,3489.36 c 77.1,-60.56 67.7,-146.49 -3.7,-145.63 -70.27,0.84 -168.43,243.79 -87.37,247.55 81.07,3.77 8.99,-37.42 91.07,-101.92"
         style="fill:#fddc9f;fill-opacity:1;fill-rule:nonzero;stroke:none"
         id="path114" /><path
         d="m 10104.2,3401.69 c 0,0 458,-456.77 636.7,-460.25 35.4,-0.69 -30.8,-296.9 -80.9,-288.76 -195.7,31.76 -625.6,705.11 -625.6,705.11 l 69.8,43.9"
         style="fill:#fddc9f;fill-opacity:1;fill-rule:nonzero;stroke:none"
         id="path116" /><path
         d="m 10339.5,546.25 c 19.8,-6.09 -111.1,-2.059 -121.6,-17.262 -19.8,-28.418 8.1,-37.406 8.1,-37.406 0,0 308.7,-73.543 320.9,-20.652 12.5,54.179 48.8,-109.188 7.8,-144.399 -34.7,-29.871 -124.4,-18.5 -169.3,30.039 -38,41.012 -205.6,60.071 -245.8,87.2 -58.1,39.082 -57,82.511 -57,82.511 79.8,39.821 171.9,46.981 256.9,19.969"
         style="fill:#4f4d80;fill-opacity:1;fill-rule:nonzero;stroke:none"
         id="path118" /><path
         d="m 10446.3,1616.99 131.3,-12.81 -24.8,-1124.391 c -25.3,-163.918 -339.8,11.813 -339.8,11.813 0,0 -49.7,36.609 -3.1,47.187 34.8,7.871 134.2,3.371 147,10.731 101.8,58.839 42.2,515.35 57.4,782.46 13.7,240.2 32,285.01 32,285.01"
         style="fill:#fddc9f;fill-opacity:1;fill-rule:nonzero;stroke:none"
         id="path120" /><path
         d="m 9787.85,274.621 383.95,-24.301 56,1254.73 h -218.7 c 0,0 -9.62,-180.21 -18.02,-416.67 -7.83,-218.982 11.82,-495.142 12.72,-503.798 3.8,-40.773 7.7,-110.973 -8.12,-135.801 -17.02,-26.699 -74.91,-91.761 -236.36,-81.629 -20.51,1.297 28.53,-92.531 28.53,-92.531"
         style="fill:#fddc9f;fill-opacity:1;fill-rule:nonzero;stroke:none"
         id="path122" /><path
         d="m 9759.33,367.121 c 22.53,4.289 1.7,-81.949 272.77,-67.66 45.1,2.359 142,31.969 143.1,48.508 2.7,37.961 46,-139.078 9.2,-177.207 -29.3,-30.461 -162.6,-11.301 -200.81,39.258 -28.96,38.351 -120.54,13.699 -188.52,36.902 -35.87,12.25 -93.01,69.539 -101.07,93.078 -4.52,13.18 44.91,23.219 65.33,27.121"
         style="fill:#4f4d80;fill-opacity:1;fill-rule:nonzero;stroke:none"
         id="path124" /><path
         d="m 10398.1,3239.16 175.3,9.74 1.3,164.46 -175.3,-9.76 -1.3,-164.44"
         style="fill:#f3cd93;fill-opacity:1;fill-rule:nonzero;stroke:none"
         id="path126" /><path
         d="m 10482.6,3780.17 76,-6.43 c 92.6,-7.86 160.3,-75.09 150.5,-149.38 l -21.9,-166.81 c -9.8,-74.3 -93.6,-128.66 -186.1,-120.8 l -76,6.44 c -92.6,7.86 -160.4,75.09 -150.6,149.37 l 22,166.78 c 9.8,74.34 93.5,128.7 186.1,120.83"
         style="fill:#fddc9f;fill-opacity:1;fill-rule:nonzero;stroke:none"
         id="path128" /><path
         d="m 9988.06,488.02 c -49.55,640.09 26.94,1431.67 105.14,1816.32 21,103.59 523.3,61.14 546.7,-4.92 141.1,-397.28 -27,-735.52 -48.2,-1052.54 -19.9,-296.732 37.8,-501.251 -1.2,-621.778 -8.4,-26.141 -111.8,-61.332 -220,10.808 -9.8,6.539 -19.5,374.94 -5.4,708.53 14.3,335.57 92.9,649.73 57.9,581.57 -18.4,-36.01 -222.1,-1459.639 -222.1,-1459.639 l -212.84,21.649"
         style="fill:#b6c9eb;fill-opacity:1;fill-rule:nonzero;stroke:none"
         id="path130" /><path
         d="m 10067.2,2348.25 c -63.2,-75.7 610.9,-131.37 586.6,-19.06 -33.8,156.51 272.2,716.12 151.6,852.14 -22.1,24.86 -108.1,31.11 -138.1,71.67 -44.5,60.34 -263.6,66.88 -349.5,0 -81.5,-63.53 -136.8,-68.58 -169.5,-97.21 -164.16,-143.47 58.3,-640.39 -81.1,-807.54"
         style="fill:#f14563;fill-opacity:1;fill-rule:nonzero;stroke:none"
         id="path132" /><path
         d="m 10532.9,3839.84 24.1,-2.04 c 121.1,-10.28 219.6,-183.43 151.4,-280.85 0,0 28.3,-64.62 133.1,-128.33 242.5,-147.36 225.9,-720.63 52.3,-784.29 -142.6,-52.27 -342.2,28.52 -470.5,175.93 -93,106.72 95,266.17 -61.8,418.28 -111.4,108 54.2,304 47.8,330 -8.9,36.4 3.9,40.12 -72.2,-26.73 -15.7,-13.79 -82.4,49.59 -82.4,49.59 -35.9,45.3 -56.9,156.23 2.2,198.52 46.1,32.85 228.1,53.98 276,49.92"
         style="fill:#4f4d80;fill-opacity:1;fill-rule:nonzero;stroke:none"
         id="path134" /><path
         d="m 9536.46,3529.51 c 0,-35.11 262.59,-550.42 266.89,-549.99 44.18,4.45 407.75,157.91 407.75,189.86 0,35.11 -292.35,467.1 -342.78,467.1 -50.43,0 -331.86,-71.9 -331.86,-106.97"
         style="fill:#ffffff;fill-opacity:1;fill-rule:nonzero;stroke:none"
         id="path136" /><path
         d="m 9579.7,3509.05 c 0,-30.68 229.37,-480.79 233.12,-480.41 38.62,3.88 356.18,137.92 356.18,165.87 0,30.65 -255.35,407.99 -299.44,407.99 -44.1,0 -289.86,-62.79 -289.86,-93.45"
         style="fill:#e8eaf7;fill-opacity:1;fill-rule:nonzero;stroke:none"
         id="path138" /><path
         d="m 9698.42,3458.77 h -0.22 l -38.77,-16.31 -0.39,-0.94 14.15,-33.7 0.93,-0.38 38.81,16.29 0.39,0.92 -14.15,33.71 -0.76,0.41 z m -24.59,-59.43 c -3.54,0 -6.72,2.11 -8.09,5.36 l -14.13,33.71 c -1.85,4.46 0.24,9.57 4.69,11.46 l 38.81,16.29 c 4.45,1.84 9.57,-0.25 11.44,-4.69 l 14.15,-33.7 c 1.86,-4.46 -0.24,-9.58 -4.68,-11.46 l -38.81,-16.28 c -1.08,-0.44 -2.22,-0.69 -3.38,-0.69"
         style="fill:#4f4d80;fill-opacity:1;fill-rule:nonzero;stroke:none"
         id="path140" /><path
         d="m 9685.4,3418.97 -31.11,23.6 4.85,6.44 21.34,-16.19 18.38,75.69 7.82,-1.9 -21.28,-87.64"
         style="fill:#33414b;fill-opacity:1;fill-rule:nonzero;stroke:none"
         id="path142" /><path
         d="m 9737.94,3448.83 c 14.98,8.26 30.74,15 47.06,20.15 8.2,2.35 16.61,4.15 24.67,6.77 8.09,2.7 16.01,5.89 23.73,9.54 15.5,7.22 31.33,13.52 47.34,19.3 16.15,5.6 32.63,10.18 49.35,13.73 l 0.28,-0.76 c -15.13,-7.97 -30.74,-15 -46.75,-21.02 -16.02,-5.77 -32.18,-11.06 -48.77,-15.41 -8.26,-2.13 -16.38,-4.75 -24.33,-7.84 -7.91,-3.22 -15.53,-7.16 -23.33,-10.61 -15.84,-6.47 -32.28,-11.37 -49.07,-14.6 l -0.18,0.75"
         style="fill:#4f4d80;fill-opacity:1;fill-rule:nonzero;stroke:none"
         id="path144" /><path
         d="m 9751.63,3348.25 -0.26,-0.05 -38.81,-16.29 -0.37,-0.93 14.13,-33.7 0.94,-0.39 38.81,16.28 0.37,0.95 -14.14,33.7 -0.71,0.43 z m -24.68,-59.46 c -3.52,0.01 -6.69,2.12 -8.07,5.37 l -14.15,33.7 c -1.87,4.45 0.23,9.58 4.68,11.45 l 38.8,16.29 c 4.46,1.87 9.58,-0.23 11.46,-4.68 l 14.15,-33.72 c 1.86,-4.45 -0.23,-9.57 -4.68,-11.45 l -38.81,-16.28 c -1.06,-0.45 -2.21,-0.69 -3.38,-0.68"
         style="fill:#4f4d80;fill-opacity:1;fill-rule:nonzero;stroke:none"
         id="path146" /><path
         d="m 9738.56,3308.42 -31.12,23.6 4.86,6.43 21.34,-16.18 18.38,75.68 7.82,-1.89 -21.28,-87.64"
         style="fill:#33414b;fill-opacity:1;fill-rule:nonzero;stroke:none"
         id="path148" /><path
         d="m 9791.08,3338.3 c 14.99,8.25 30.75,15 47.06,20.14 8.2,2.36 16.62,4.15 24.67,6.77 8.09,2.71 16.01,5.88 23.72,9.52 15.51,7.24 31.34,13.53 47.36,19.31 16.14,5.59 32.62,10.18 49.33,13.72 l 0.29,-0.75 c -15.13,-7.97 -30.74,-15 -46.74,-21.03 -16.03,-5.77 -32.18,-11.04 -48.76,-15.41 -8.26,-2.13 -16.39,-4.74 -24.35,-7.84 -7.9,-3.22 -15.51,-7.17 -23.33,-10.61 -15.83,-6.48 -32.26,-11.37 -49.06,-14.6 l -0.19,0.78"
         style="fill:#4f4d80;fill-opacity:1;fill-rule:nonzero;stroke:none"
         id="path150" /><path
         d="m 9801.2,3248.84 h -0.21 l -38.81,-16.29 -0.38,-0.93 14.15,-33.7 0.92,-0.39 38.8,16.28 0.4,0.93 -14.15,33.72 z m -24.58,-59.43 c -3.52,0.02 -6.7,2.12 -8.07,5.36 l -14.15,33.7 c -1.87,4.46 0.23,9.59 4.68,11.46 l 38.81,16.29 c 4.46,1.86 9.58,-0.24 11.46,-4.69 l 14.15,-33.7 c 1.85,-4.47 -0.24,-9.58 -4.68,-11.47 l -38.81,-16.27 c -1.07,-0.45 -2.23,-0.68 -3.39,-0.68"
         style="fill:#4f4d80;fill-opacity:1;fill-rule:nonzero;stroke:none"
         id="path152" /><path
         d="m 9788.2,3209.04 -31.1,23.59 4.84,6.44 21.34,-16.18 18.39,75.69 7.81,-1.9 -21.28,-87.64"
         style="fill:#33414b;fill-opacity:1;fill-rule:nonzero;stroke:none"
         id="path154" /><path
         d="m 9840.74,3238.91 c 16.74,8.89 34.23,16.25 52.28,22.02 9.07,2.68 18.35,4.79 27.32,7.72 8.95,3.02 17.74,6.51 26.32,10.47 17.24,7.85 34.83,14.79 52.56,21.22 17.88,6.23 36.08,11.43 54.58,15.6 l 0.3,-0.75 c -16.9,-8.61 -34.2,-16.26 -52,-22.91 -17.72,-6.44 -35.66,-12.3 -53.93,-17.29 -9.14,-2.46 -18.12,-5.39 -26.94,-8.79 -8.78,-3.49 -17.26,-7.8 -25.93,-11.56 -17.56,-7.1 -35.73,-12.61 -54.27,-16.48 l -0.29,0.75"
         style="fill:#4f4d80;fill-opacity:1;fill-rule:nonzero;stroke:none"
         id="path156" /><path
         d="m 9837.48,3152.41 h -0.2 l -38.82,-16.29 -0.36,-0.93 14.13,-33.71 0.95,-0.39 38.8,16.29 0.38,0.93 -14.15,33.72 z m -24.59,-59.44 c -3.52,0 -6.71,2.12 -8.08,5.37 l -14.13,33.7 c -1.88,4.45 0.2,9.58 4.65,11.45 l 0.01,0.01 38.82,16.28 c 4.45,1.87 9.58,-0.23 11.46,-4.69 l 14.14,-33.7 c 1.85,-4.46 -0.24,-9.58 -4.68,-11.45 l -38.81,-16.29 c -1.07,-0.45 -2.23,-0.68 -3.38,-0.68"
         style="fill:#4f4d80;fill-opacity:1;fill-rule:nonzero;stroke:none"
         id="path158" /><path
         d="m 9824.48,3112.6 -31.1,23.61 4.84,6.43 21.34,-16.19 18.39,75.69 7.81,-1.9 -21.28,-87.64"
         style="fill:#33414b;fill-opacity:1;fill-rule:nonzero;stroke:none"
         id="path160" /><path
         d="m 9877.02,3142.49 c 19.07,9.72 38.86,17.93 59.21,24.53 10.24,3.09 20.67,5.62 30.81,8.97 10.15,3.34 20.01,7.44 29.8,11.72 19.56,8.69 39.46,16.46 59.46,23.73 20.2,7.06 40.8,13.12 61.6,18.12 l 0.3,-0.76 c -19.3,-9.64 -39,-17.77 -58.9,-25.42 -20.1,-7.22 -40.4,-13.94 -60.96,-19.8 -10.27,-2.96 -20.48,-6.12 -30.41,-10.04 -9.93,-3.92 -19.57,-8.63 -29.41,-12.79 -19.87,-7.94 -40.34,-14.3 -61.21,-19.01 l -0.29,0.75"
         style="fill:#4f4d80;fill-opacity:1;fill-rule:nonzero;stroke:none"
         id="path162" /><path
         d="m 9748.3,3193.01 c 28.33,-31.03 28.73,-107.74 1.3,-128.81 -19.5,-15.02 -74.01,10.45 -97.62,42.15 -25.98,34.84 13.31,199.84 36.2,99.52 4.68,-20.77 44.3,4.42 60.12,-12.86"
         style="fill:#fddc9f;fill-opacity:1;fill-rule:nonzero;stroke:none"
         id="path164" /><path
         d="m 9744.06,3090.82 c 116.93,-38.62 228.9,-435.92 228.9,-435.92 0,0 76.04,439.72 175.24,477.9 67.6,25.98 97.8,-82.12 99,-136.75 3.2,-145.51 -58.5,-456.11 -278.14,-479.97 -194.79,-21.18 -308.48,456.95 -263.02,556.39 0.05,0.01 28.06,21.65 38.02,18.35"
         style="fill:#fddc9f;fill-opacity:1;fill-rule:nonzero;stroke:none"
         id="path166" /><path
         d="m 1305.89,555.539 c 461.39,0 835.41,-100.527 835.41,-224.551 0,-124.008 -374.02,-224.547 -835.41,-224.547 -461.378,0 -835.394,100.539 -835.394,224.547 0,124.024 374.016,224.551 835.394,224.551"
         style="fill:#eef2f6;fill-opacity:1;fill-rule:nonzero;stroke:none"
         id="path168" /><path
         d="m 1125.3,435.922 c -19.63,14.488 -67,70.937 -67,70.937 H 895.359 C 856.945,474.02 863.879,307.16 863.879,307.16 h 522.871 c 14.48,71.449 -202.77,85.5 -261.45,128.762"
         style="fill:#ffffff;fill-opacity:1;fill-rule:nonzero;stroke:none"
         id="path170" /><path
         d="m 1700.82,435.922 c -19.64,14.488 -67.01,70.937 -67.01,70.937 h -162.93 c -38.42,-32.839 -31.5,-199.699 -31.5,-199.699 h 522.87 c 14.44,71.449 -202.82,85.5 -261.43,128.762"
         style="fill:#ffffff;fill-opacity:1;fill-rule:nonzero;stroke:none"
         id="path172" /><path
         d="m 1643.09,497.891 h -195.11 c 0,0 -73.18,1009.809 -74.4,1012.779 -74.42,182.08 -110.13,513.71 -110.13,513.71 L 1064.23,497.891 c 0,0 -194.992,-4.661 -195.503,0 C 835.086,800.93 948.887,1470 948.887,1470 l -66.184,933.79 h 755.857 l 34.32,-863.7 -29.79,-1042.199"
         style="fill:#33414b;fill-opacity:1;fill-rule:nonzero;stroke:none"
         id="path174" /><path
         d="m 1620.59,3840.77 c 0,34.95 -20.46,63.7 -46.8,67.72 13.55,8.89 14.6,37.69 1.83,66.99 -12.01,27.55 -32.18,46.36 -47.96,45.95 0.56,3.44 0.86,6.92 0.88,10.4 1.26,32.59 -24.08,60.05 -56.66,61.42 -7.65,0 -15.21,-1.66 -22.16,-4.89 4.89,18.42 -14.24,41.01 -44.21,51.38 -25.64,8.88 -51.13,5.97 -63.17,-5.85 -6.59,15.9 -28.5,27.6 -54.59,27.6 -17.24,0.64 -34.08,-5.31 -47.08,-16.65 -11,10.92 -25.94,16.93 -41.43,16.66 -19.66,0.68 -38.15,-9.3 -48.38,-26.1 -16.22,3.59 -33.11,2.73 -48.89,-2.49 -32.76,-10.12 -54.58,-33.26 -50.63,-52.81 -7.91,4.14 -16.69,6.32 -25.61,6.35 -35.203,0 -63.726,-33.61 -63.726,-75.09 -0.156,-17.88 5.488,-35.32 16.094,-49.71 -4.059,1.28 -8.285,1.93 -12.539,1.94 -33.258,0 -60.2,-39.69 -60.2,-88.69 0,-34.55 13.426,-64.37 32.993,-79.07 -15.094,-9.41 -25.914,-34.57 -25.914,-64.24 0,-37.69 17.441,-68.24 38.949,-68.24 3.14,0.03 6.246,0.7 9.129,1.97 -8.27,-8.86 -12.809,-20.57 -12.684,-32.68 -1.391,-22.97 15.996,-42.77 38.953,-44.35 2.348,0.01 4.688,0.25 6.981,0.75 -2.235,-4.48 -3.414,-9.41 -3.442,-14.42 0,-22.28 23.116,-40.37 51.876,-40.88 57.54,-60.54 137.25,-95.05 220.78,-95.58 173.89,0 315.52,150.24 321.92,338.17 20.76,9.32 35.69,34.62 35.69,64.44"
         style="fill:#33414b;fill-opacity:1;fill-rule:nonzero;stroke:none"
         id="path176" /><path
         d="m 1353.24,3293.62 h -219.01 l 8.97,286.92 h 219.9 l -9.86,-286.92"
         style="fill:#fddc9f;fill-opacity:1;fill-rule:nonzero;stroke:none"
         id="path178" /><path
         d="m 1321.16,3508.28 c -5.81,14.13 -158.45,74.72 -178.63,49.92 0,0 53.93,-156.37 74.39,-160.07 57.5,-25.66 98.52,42.38 109.42,59.24 -3.55,22.87 0.62,36.77 -5.18,50.91"
         style="fill:#f3c580;fill-opacity:1;fill-rule:nonzero;stroke:none"
         id="path180" /><path
         d="m 727.508,3366.54 -214.688,24.25 -274.39,286.27 -111.817,-37.77 c 0,0 205.59,-330.2 289.867,-413.71 44.946,-44.53 189.254,-68.15 311.168,-80.46 -0.851,74.35 -2.847,148.68 -0.14,221.42"
         style="fill:#fddc9f;fill-opacity:1;fill-rule:nonzero;stroke:none"
         id="path182" /><path
         d="m 1359.23,3444.99 c 0,0 -58.2,-112.93 -124.8,-112.3 -88.96,0.85 -95.72,85.82 -95.72,85.82 L 727.508,3366.6 c -2.707,-72.75 -0.711,-147.08 0.14,-221.34 101.637,-10.24 187.719,-12.59 187.719,-12.59 l -43.476,-770.35 798.769,5.55 -63.21,799 c 0,11.06 57.31,52.56 124.76,109.2 -38.46,92.35 -61.74,140.52 -75.95,238.31 -109.24,-42.72 -279.85,-69.39 -297.03,-69.39"
         style="fill:#f7a848;fill-opacity:1;fill-rule:nonzero;stroke:none"
         id="path184" /><path
         d="m 1868.03,4235.82 -84.98,-24.67 -5.49,-619.57 c -16.4,-3.52 -87.56,-64.2 -121.46,-77.44 14.22,-97.73 37.64,-145.76 76.1,-238.14 72.54,60.96 156.77,139.45 194.16,216.92 52.33,108.44 -58.33,742.9 -58.33,742.9"
         style="fill:#fddc9f;fill-opacity:1;fill-rule:nonzero;stroke:none"
         id="path186" /><path
         d="m 1026.82,3791.57 c 3.69,-48.51 51.16,-64.3 59.88,-107.44 23.3,-115.61 124.19,-232 218.52,-232 79.96,0 196.56,151.64 196.56,322.74 0.42,40.94 -2.35,81.83 -8.27,122.34 -11.42,70.67 -176.67,-122.5 -327.17,37.34 -35.2,37.36 -30.42,-123.54 -75.97,-123.54 -2.06,0.02 -70.58,72.54 -63.55,-19.44"
         style="fill:#fddc9f;fill-opacity:1;fill-rule:nonzero;stroke:none"
         id="path188" /><path
         d="m 111.672,3734.86 c 28.707,21.31 61.176,26.17 72.527,10.88 11.356,-15.3 -2.715,-44.96 -31.418,-66.27 -28.703,-21.3 -61.1794,-26.17 -72.531,-10.88 -11.3477,15.29 2.7188,44.96 31.422,66.27"
         style="fill:#fef5df;fill-opacity:1;fill-rule:nonzero;stroke:none"
         id="path190" /><path
         d="m 2309.69,4544.13 36.98,-107.98 -634.39,-217.28 -36.99,107.98 634.4,217.28"
         style="fill:#f25775;fill-opacity:1;fill-rule:nonzero;stroke:none"
         id="path192" /><path
         d="m 2376.46,4445.74 c -35.24,73.87 -54.95,156.59 -54.9,243.89 0.13,202.53 106.52,380.15 266.43,480.17 h 100.69 c -3.22,-2.1 -6.4,-4.26 -9.54,-6.48 -41.71,-29.46 -15.7,-92.04 23.38,-92.04 8.04,0 16.63,2.64 25.3,8.77 l 0.02,-0.02 c 51.18,36.16 113.47,52.39 176.4,52.39 71.52,0 143.88,-20.95 201.79,-57.46 86.96,-54.83 155.41,-153.92 182.35,-249.6 6.69,-23.73 25.47,-34.02 44.57,-34.02 28.92,0 58.62,23.54 48.44,59.65 -35.4,125.5 -123.94,246.53 -236,312.92 -3.39,2.01 -6.81,3.97 -10.28,5.89 h 51.76 c 107.83,-67.26 192.6,-170.43 235.93,-296.4 30.81,-89.52 37.88,-181.46 24.57,-268.99 l -552.77,110.76 -518.14,-269.43 m 203.04,630.93 c -26.89,0 -48.7,-21.8 -48.7,-48.7 0,-26.89 21.81,-48.7 48.7,-48.7 26.9,0 48.7,21.81 48.7,48.7 0,26.9 -21.8,48.7 -48.7,48.7"
         style="fill:#ffffff;fill-opacity:1;fill-rule:nonzero;stroke:none"
         id="path194" /><path
         d="m 3186.87,5169.8 h -51.76 c -68.04,37.74 -150.8,59.09 -232.74,59.09 -76.04,0 -151.39,-18.37 -213.69,-59.09 h -100.69 c 86.98,54.41 189.81,85.86 299.95,85.86 0.12,0 0.24,0 0.35,0 v -0.08 c 108.2,-0.22 210.99,-31.15 298.58,-85.78"
         style="fill:#e0dee8;fill-opacity:1;fill-rule:nonzero;stroke:none"
         id="path196" /><path
         d="m 3061,4150 h -346.61 c -117.92,37.92 -218.99,113.45 -289.06,212.45 l 80.38,41.79 422.19,205.86 414.91,-83.1 81.27,-18.53 c -54.22,-160.78 -179.78,-295.54 -352.63,-355.01 -3.48,-1.19 -6.96,-2.34 -10.45,-3.46"
         style="fill:#fbfafd;fill-opacity:1;fill-rule:nonzero;stroke:none"
         id="path198" /><path
         d="m 2505.71,4404.24 403.2,209.66 18.99,-3.8 -422.19,-205.86 m 918.37,104.23 -81.27,18.53 81.97,-16.42 c -0.23,-0.71 -0.46,-1.4 -0.7,-2.11"
         style="fill:#ebdef1;fill-opacity:1;fill-rule:nonzero;stroke:none"
         id="path200" /><path
         d="m 2425.33,4362.45 c -18.55,26.21 -34.92,54.05 -48.87,83.29 l 518.14,269.43 552.77,-110.76 c -4.86,-31.97 -12.45,-63.37 -22.59,-93.83 l -81.97,16.42 -414.91,83.1 -18.99,3.8 -403.2,-209.66 -80.38,-41.79"
         style="fill:#ebdef1;fill-opacity:1;fill-rule:nonzero;stroke:none"
         id="path202" /><path
         d="m 2887.94,4122.91 c -0.11,0 -0.23,0 -0.34,0 -60.43,0.03 -118.62,9.53 -173.21,27.09 H 3061 c -55.92,-17.95 -114.29,-27.1 -173.06,-27.09"
         style="fill:#e0dee8;fill-opacity:1;fill-rule:nonzero;stroke:none"
         id="path204" /><path
         d="m 2888.29,5255.66 c -312.8,0.19 -566.53,-253.22 -566.73,-566.03 -0.18,-312.8 253.24,-566.53 566.04,-566.72 62.55,-0.04 124.67,10.28 183.85,30.55 295.83,101.78 453.14,424.11 351.35,719.94 -78.53,228.27 -293.1,381.69 -534.51,382.18 v 0.08 m 0.07,-1213.2 c -357.18,-0.4 -647.05,288.85 -647.44,646.02 -0.38,357.18 288.85,647.05 646.03,647.43 357.18,0.39 647.05,-288.84 647.44,-646.02 0.29,-276.54 -175.28,-522.69 -436.86,-612.43 -67.31,-23.15 -138,-34.98 -209.17,-35"
         style="fill:#f14563;fill-opacity:1;fill-rule:nonzero;stroke:none"
         id="path206" /><path
         d="m 1955.84,4356.46 v 0 c 17.04,-49.7 -9.44,-103.79 -59.14,-120.83 L 125.996,3628.59 c -49.6952,-17.04 -103.7929,9.43 -120.82803,59.13 -17.03517,49.7 9.43753,103.79 59.13673,120.83 L 1835.01,4415.59 c 49.7,17.03 103.79,-9.43 120.83,-59.13"
         style="fill:#f14563;fill-opacity:1;fill-rule:nonzero;stroke:none"
         id="path208" /><path
         d="m 3332.95,4791.34 c -19.1,0 -37.88,10.29 -44.57,34.02 -26.94,95.68 -95.39,194.77 -182.35,249.6 -57.91,36.51 -130.27,57.46 -201.79,57.46 -62.93,0 -125.22,-16.23 -176.4,-52.39 l -0.02,0.02 c -8.67,-6.13 -17.26,-8.77 -25.3,-8.77 -39.08,0 -65.09,62.58 -23.38,92.04 3.14,2.22 6.32,4.38 9.54,6.48 h 446.43 c 3.47,-1.92 6.89,-3.88 10.28,-5.89 112.06,-66.39 200.6,-187.42 236,-312.92 10.18,-36.11 -19.52,-59.65 -48.44,-59.65"
         style="fill:#fbc6d3;fill-opacity:1;fill-rule:nonzero;stroke:none"
         id="path210" /><path
         d="m 3135.11,5169.8 h -446.43 c 62.3,40.72 137.65,59.09 213.69,59.09 81.94,0 164.7,-21.35 232.74,-59.09"
         style="fill:#e8adc0;fill-opacity:1;fill-rule:nonzero;stroke:none"
         id="path212" /><path
         d="m 2579.5,4979.27 c -26.89,0 -48.7,21.81 -48.7,48.7 0,26.9 21.81,48.7 48.7,48.7 26.9,0 48.7,-21.8 48.7,-48.7 0,-26.89 -21.8,-48.7 -48.7,-48.7"
         style="fill:#fbc6d3;fill-opacity:1;fill-rule:nonzero;stroke:none"
         id="path214" /><path
         d="m 1872.21,4404.82 c -3.67,20.07 -12.37,32.35 -81.35,17.67 -43.03,-9.16 -79.18,-26.28 -75.5,-46.36 3.68,-20.09 43.27,-25.29 86.57,-17.37 43.31,7.93 73.94,25.98 70.28,46.06"
         style="fill:#fddda4;fill-opacity:1;fill-rule:nonzero;stroke:none"
         id="path216" /><path
         d="m 109.898,3859.59 c -53.4371,-17.07 -76.0621,-51.16 -65.6128,-83.89 10.4492,-32.73 50.0078,-51.7 103.4488,-34.65 53.438,17.06 76.5,55.56 66.067,88.3 -10.442,32.74 -50.481,47.31 -103.903,30.24"
         style="fill:#fddc9f;fill-opacity:1;fill-rule:nonzero;stroke:none"
         id="path218" /><path
         d="m 1543.59,4001.04 c -3.54,13.95 -21.82,21.46 -42.03,18.03 9.28,6.14 7.16,17.81 -5.36,27.05 -11.71,8.56 -26.45,11.87 -40.7,9.14 0.08,1.44 -0.05,2.89 -0.4,4.3 -3.44,13.5 -25.28,19.62 -48.79,13.63 -5.62,-1.41 -11.04,-3.48 -16.17,-6.18 1.82,8.28 -14.85,13.61 -38.4,12.03 -16.67,-0.29 -32.93,-5.29 -46.89,-14.42 -6.55,5.09 -24.2,5.56 -43.8,0.58 -12.25,-2.66 -23.75,-8 -33.69,-15.64 -10.88,2.21 -22.14,1.77 -32.83,-1.28 -13.18,-2.42 -25.1,-9.37 -33.69,-19.65 -12.59,-1.68 -24.88,-5.16 -36.47,-10.34 -23.6,-10.29 -37.64,-23.68 -32.7,-30.71 -6.7,0.1 -13.39,-0.7 -19.89,-2.37 -26.45,-6.73 -44.48,-25.57 -40.27,-42.08 2.61,-8.07 9.03,-14.34 17.16,-16.75 -3.26,-0.27 -6.49,-0.81 -9.65,-1.62 -24.99,-6.36 -41.211,-27.32 -36.24,-46.84 4.71,-14.35 17.72,-24.35 32.8,-25.2 -10.47,-6.31 -15.7,-18.63 -12.96,-30.55 4.56,-15.43 20.75,-24.25 36.19,-19.73 2.3,0.58 4.54,1.43 6.66,2.52 -4.74,-3.63 -7.12,-9.54 -6.22,-15.44 2.49,-9.76 17.61,-14.34 33.76,-10.24 1.75,0.46 3.48,1.01 5.17,1.64 -1.16,-1.92 -1.55,-4.23 -1.07,-6.43 2.26,-8.88 21.45,-11.67 43.12,-6.38 57.98,-12.98 118.26,-11.56 175.57,4.12 48.45,11.79 94.14,32.92 134.5,62.21 11.86,-18.7 36.64,-24.26 55.35,-12.39 18.71,11.86 24.26,36.64 12.4,55.35 -3.42,5.39 -8.07,9.88 -13.58,13.11 16.17,22.56 22.96,50.52 18.93,77.98 14.56,7.73 23.22,20.67 20.19,32.55"
         style="fill:#33414b;fill-opacity:1;fill-rule:nonzero;stroke:none"
         id="path220" /></g></g></svg>
