<?xml version="1.0" encoding="UTF-8" standalone="no" ?>
<!DOCTYPE svg PUBLIC "-//W3C//DTD SVG 1.1//EN" "http://www.w3.org/Graphics/SVG/1.1/DTD/svg11.dtd">
<svg xmlns="http://www.w3.org/2000/svg" xmlns:xlink="http://www.w3.org/1999/xlink" version="1.1" width="100" height="75" viewBox="0 0 100 75" xml:space="preserve">
<desc>Created with Fabric.js 5.3.0</desc>
<defs>
</defs>
<g transform="matrix(1 0 0 1 50.7467299363 39.344941307)" id="KvIrY3DcPeBC9LdJBXxjv"  >
<g style="" vector-effect="non-scaling-stroke"   >
		<g transform="matrix(0.2190641525 0 0 0.219064155 -0.1810447541 -19.8723486505)" id="P-P5-aW3WuXYgK3AOUf1V"  >
<path style="stroke: none; stroke-width: 1; stroke-dasharray: none; stroke-linecap: butt; stroke-dashoffset: 0; stroke-linejoin: miter; stroke-miterlimit: 4; fill: rgb(255,255,255); fill-rule: nonzero; opacity: 1;" vector-effect="non-scaling-stroke"  transform=" translate(0, 0)" d="M 60.73955 -21.17951 C 61.77288 -27.99951 64.85955 -33.12284 69.99955 -36.54951 C 73.63955 -38.97618 77.66622 -40.14618 82.07955 -40.059509999999996 C 86.78622 -39.966179999999994 90.93288 -38.41618 94.51955 -35.40951 C 97.53287999999999 -32.882839999999995 99.58287999999999 -29.919509999999995 100.66955 -26.519509999999997 C 101.68288 -23.326179999999997 102.03622 -19.606179999999995 101.72955 -15.359509999999997 C 101.68955 -14.719509999999996 101.97955 -14.099509999999997 102.50955 -13.739509999999996 L 147.45955 16.710490000000004 C 147.82955 16.960490000000004 148.30955 16.970490000000005 148.68955 16.740490000000005 C 155.51622 12.573820000000005 162.17288 12.027160000000006 168.65955 15.100490000000004 C 172.55955 16.940490000000004 175.56288 19.557160000000003 177.66955 22.950490000000002 C 179.17622 25.377160000000003 180.12955 28.043820000000004 180.52955 30.950490000000002 C 180.90955 33.71049 180.72955 36.47049 179.98955 39.23049 C 178.52288000000001 44.71049000000001 175.24955 48.90382 170.16955000000002 51.81049 C 167.42955 53.370490000000004 164.45622 54.22382 161.24955000000003 54.370490000000004 C 158.21622000000002 54.503820000000005 155.25955000000002 53.98716 152.37955000000002 52.82049000000001 C 146.79955 50.56716000000001 142.92622000000003 46.370490000000004 140.75955000000002 40.23049 C 139.51288000000002 36.70382 139.26955 33.117160000000005 140.02955000000003 29.470490000000005 C 140.12955000000002 29.030490000000004 139.94955000000002 28.580490000000005 139.57955000000004 28.330490000000005 L 93.92955000000003 -2.6095099999999967 C 93.66955000000003 -2.7795099999999966 93.32955000000004 -2.789509999999997 93.05955000000003 -2.6295099999999967 C 83.26622000000003 3.1771600000000038 74.04955000000002 1.8704900000000033 65.40955000000002 -6.549509999999996 C 64.86955000000002 -7.079509999999996 64.08955000000003 -7.279509999999997 63.369550000000025 -7.059509999999996 L 9.899550000000026 8.660490000000005 C 9.609550000000027 8.750490000000005 9.389550000000026 9.000490000000005 9.339550000000026 9.310490000000005 C 7.572880000000026 20.450490000000006 1.286220000000025 26.720490000000005 -9.520449999999974 28.120490000000004 C -14.073779999999974 28.713820000000005 -18.590449999999976 27.380490000000005 -23.070449999999973 24.120490000000004 C -29.80377999999997 19.227160000000005 -32.64711999999997 12.767160000000004 -31.600449999999974 4.740490000000005 C -31.530449999999973 4.160490000000005 -31.810449999999975 3.600490000000005 -32.310449999999975 3.300490000000005 L -71.93044999999998 -19.629509999999996 C -72.34044999999998 -19.859509999999997 -72.86044999999999 -19.809509999999996 -73.21044999999998 -19.499509999999997 C -80.17044999999997 -13.292839999999998 -87.78377999999998 -11.776179999999997 -96.05044999999998 -14.949509999999997 C -96.35044999999998 -15.059509999999996 -96.68044999999998 -15.019509999999997 -96.93044999999998 -14.839509999999997 L -139.42045 15.670490000000004 C -139.91045 16.020490000000006 -140.16045 16.640490000000003 -140.04045 17.240490000000005 C -138.87377999999998 23.627160000000003 -139.90377999999998 29.080490000000005 -143.13045 33.60049000000001 C -146.02378 37.65382000000001 -149.88378 40.37382000000001 -154.71045 41.760490000000004 C -159.65712000000002 43.173820000000006 -164.69712 42.56382000000001 -169.83045 39.930490000000006 C -173.22378 38.190490000000004 -175.89712 35.47382 -177.85045000000002 31.780490000000007 C -181.95712000000003 24.02716000000001 -181.66045000000003 16.827160000000006 -176.96045000000004 10.180490000000006 C -173.37378000000004 5.113820000000006 -168.47378000000003 2.2038200000000057 -162.26045000000005 1.4504900000000056 C -157.64045000000004 0.8904900000000056 -153.42712000000006 1.8104900000000055 -149.62045000000006 4.210490000000005 C -148.91045000000005 4.650490000000006 -148.01045000000005 4.6204900000000055 -147.34045000000006 4.140490000000005 L -107.14045000000006 -24.86951 C -106.89045000000006 -25.049509999999998 -106.78045000000006 -25.36951 -106.87045000000006 -25.659509999999997 C -109.95045000000006 -35.952839999999995 -108.01712000000006 -43.912839999999996 -101.07045000000006 -49.53950999999999 C -97.45712000000006 -52.466179999999994 -93.42045000000006 -54.069509999999994 -88.96045000000007 -54.349509999999995 C -84.09378000000007 -54.64950999999999 -79.68045000000006 -53.32283999999999 -75.72045000000007 -50.36951 C -73.07378000000007 -48.39618 -71.02712000000007 -46.01951 -69.58045000000007 -43.239509999999996 C -68.05378000000007 -40.312839999999994 -67.28378000000006 -37.172839999999994 -67.27045000000007 -33.819509999999994 C -67.27045000000007 -33.279509999999995 -66.98045000000006 -32.78950999999999 -66.52045000000007 -32.51951 L -25.12045000000007 -8.549509999999998 C -24.71045000000007 -8.309509999999998 -24.200450000000068 -8.349509999999999 -23.83045000000007 -8.649509999999998 C -19.47712000000007 -12.136179999999998 -14.39712000000007 -13.506179999999997 -8.59045000000007 -12.759509999999999 C -3.07712000000007 -12.052839999999998 1.4362199999999294 -9.462839999999998 4.949549999999929 -4.989509999999999 C 5.169549999999929 -4.71951 5.529549999999929 -4.5995099999999995 5.859549999999929 -4.699509999999999 L 60.189549999999926 -20.549509999999998 C 60.479549999999925 -20.639509999999998 60.689549999999926 -20.879509999999996 60.73954999999992 -21.179509999999997 z" stroke-linecap="round" />
</g>
		<g transform="matrix(0.2190641525 0 0 0.219064155 -19.1410333981 11.2063906982)" id="nDyTgfma_4WHl7UbWFt82"  >
<path style="stroke: none; stroke-width: 1; stroke-dasharray: none; stroke-linecap: butt; stroke-dashoffset: 0; stroke-linejoin: miter; stroke-miterlimit: 4; fill: rgb(255,255,255); fill-rule: nonzero; opacity: 1;" vector-effect="non-scaling-stroke"  transform=" translate(0, 0)" d="M -24.87 93.75 L -24.87 -93.75 L 24.87 -93.75 L 24.87 93.75 z" stroke-linecap="round" />
</g>
		<g transform="matrix(0.2190641525 0 0 0.219064155 16.9234980279 11.2063906982)" id="3D6Jkw4sNf0UHBWdIuZz1"  >
<path style="stroke: none; stroke-width: 1; stroke-dasharray: none; stroke-linecap: butt; stroke-dashoffset: 0; stroke-linejoin: miter; stroke-miterlimit: 4; fill: rgb(255,255,255); fill-rule: nonzero; opacity: 1;" vector-effect="non-scaling-stroke"  transform=" translate(-24.75, -93.75)" d="M 0 187.5 L 0 0 L 49.5 0 L 49.5 187.5 z" stroke-linecap="round" />
</g>
		<g transform="matrix(0.2190641525 0 0 0.219064155 -1.4494124422 15.5044294193)" id="z0qdhr5pKe3C1qOYazRtG"  >
<path style="stroke: none; stroke-width: 1; stroke-dasharray: none; stroke-linecap: butt; stroke-dashoffset: 0; stroke-linejoin: miter; stroke-miterlimit: 4; fill: rgb(255,255,255); fill-rule: nonzero; opacity: 1;" vector-effect="non-scaling-stroke"  transform=" translate(-24.87, -74.13)" d="M 0 148.26 L 0 0 L 49.74 0 L 49.74 148.26 z" stroke-linecap="round" />
</g>
		<g transform="matrix(0.2190641525 0 0 0.219064155 -35.2131641202 18.1458560895)" id="90eg1MmiaFcPQpA9N_uee"  >
<path style="stroke: none; stroke-width: 1; stroke-dasharray: none; stroke-linecap: butt; stroke-dashoffset: 0; stroke-linejoin: miter; stroke-miterlimit: 4; fill: rgb(255,255,255); fill-rule: nonzero; opacity: 1;" vector-effect="non-scaling-stroke"  transform=" translate(-24.75, -61.73)" d="M 0 123.46 L 0 0 L 49.5 0 L 49.5 123.46 z" stroke-linecap="round" />
</g>
		<g transform="matrix(0.2190641525 0 0 0.219064155 35.2131641202 18.2668284139)" id="g3dqV3U1_SIY_3wu-HEk6"  >
<path style="stroke: none; stroke-width: 1; stroke-dasharray: none; stroke-linecap: butt; stroke-dashoffset: 0; stroke-linejoin: miter; stroke-miterlimit: 4; fill: rgb(255,255,255); fill-rule: nonzero; opacity: 1;" vector-effect="non-scaling-stroke"  transform=" translate(-24.75, -61.72)" d="M 0 123.44 L 0 0 L 49.5 0 L 49.5 123.44 z" stroke-linecap="round" />
</g>
</g>
</g>
<g transform="matrix(0.2190641525 0 0 0.219064155 -2.3992040024 3.4666952953)" id="KRjgfBPUB9MHG6fgVoHvA"  >
<path style="stroke: rgb(255,255,255); stroke-width: 1; stroke-dasharray: none; stroke-linecap: butt; stroke-dashoffset: 0; stroke-linejoin: miter; stroke-miterlimit: 4; fill: rgb(255,255,255); fill-opacity: 0; fill-rule: nonzero; opacity: 1;" vector-effect="non-scaling-stroke"  transform=" translate(0, 0)" d="M 0 0" stroke-linecap="round" />
</g>
</svg>