<?xml version="1.0" encoding="UTF-8" standalone="no" ?>
<!DOCTYPE svg PUBLIC "-//W3C//DTD SVG 1.1//EN" "http://www.w3.org/Graphics/SVG/1.1/DTD/svg11.dtd">
<svg xmlns="http://www.w3.org/2000/svg" xmlns:xlink="http://www.w3.org/1999/xlink" version="1.1" width="110" height="93" viewBox="0 0 110 93" xml:space="preserve">
<desc>Created with Fabric.js 5.3.0</desc>
<defs>
</defs>
<g transform="matrix(1 0 0 1 55 51.5)" id="nOtwKU5c2B8_k6NAm3bKr"  >
<g style="" vector-effect="non-scaling-stroke"   >
		<g transform="matrix(0.2278970143 0 0 0.2278970143 -23.094125823 -9.9423808694)" id="bhykgP-Dzy0xxso1P1M4H"  >
<path style="stroke: none; stroke-width: 1; stroke-dasharray: none; stroke-linecap: butt; stroke-dashoffset: 0; stroke-linejoin: miter; stroke-miterlimit: 4; fill: rgb(255,255,255); fill-rule: nonzero; opacity: 1;" vector-effect="non-scaling-stroke"  transform=" translate(-154.8181616829, -158.8592544084)" d="M 118.05 188.72 Q 135.25 189.19 153.44 189.08 Q 157.13 189.06 159.03 191.47 Q 159.57 192.16 161.41 196.52 Q 166.07 207.55 170.18 218.79 Q 171.41 222.13 170.91 224.49 Q 170.08 228.42 166.78 230.74 Q 165.08 231.94 162.28 231.94 Q 131.03 232.05 100.16 232 C 99.62 232 99.13 232.33 98.92 232.83 Q 90.63 253.2 82.75 273.25 Q 80.53 278.91 73.75 278.94 Q 58.63 279 43.5 278.98 Q 38.46 278.98 37.5 274.5 Q 36.84 271.41 38.33 267.68 Q 74.52 177.73 110.81 87.81 Q 119.39 66.55 122.69 59.62 Q 131.11 41.93 150.77 39.41 Q 163.54 37.77 174.15 44.86 Q 180 48.76 183.83 54.36 Q 185.98 57.52 189.57 66.39 Q 248.16 211.29 269.94 264.81 Q 271.44 268.52 271.81 270.53 Q 273.3 278.9 264.75 279 Q 239.93 279.3 234.75 278.75 Q 229.43 278.19 227.64 272.88 Q 226.76 270.27 226.72 270.16 Q 191.97 183.28 156.71 95.78 C 156.43 95.08 155.96 94.47 155.35 94.03 Q 153.74 92.85 152.97 94.85 Q 135.52 140.13 117.06 187.22 C 116.78 187.93 117.29 188.7 118.05 188.72 Z" stroke-linecap="round" />
</g>
		<g transform="matrix(0.2278970143 0 0 0.2278970143 26.3125068211 -9.0922965782)" id="JpOiZuAHTmiLhHFBosBuv"  >
<path style="stroke: none; stroke-width: 1; stroke-dasharray: none; stroke-linecap: butt; stroke-dashoffset: 0; stroke-linejoin: miter; stroke-miterlimit: 4; fill: rgb(255,255,255); fill-rule: nonzero; opacity: 1;" vector-effect="non-scaling-stroke"  transform=" translate(-371.611842793, -162.5893791483)" d="M 350.24 86.06 Q 313.72 85.95 276.75 86 Q 272.22 86.01 270.07 82.66 Q 268.77 80.64 268.47 76.08 Q 267.83 66.37 268.5 52.75 Q 268.92 44.17 276.91 44.23 Q 277.2 44.24 278.06 44.08 Q 278.53 44 279.25 44 Q 372.25 44 465.25 44 Q 467.41 44 470.5 44.75 Q 473.36 45.44 474.25 48.95 Q 475.22 52.79 475.23 56.75 Q 475.23 71.29 474.75 78.25 Q 474.45 82.55 471.31 84.52 Q 469.37 85.74 464.93 85.79 Q 430.03 86.18 393.92 85.99 C 393.41 85.99 393 86.41 393 86.92 Q 393.18 178.63 392.75 269 Q 392.73 272.19 391.57 276.7 C 391.49 277.03 391.31 277.31 391.08 277.53 Q 387.8 280.57 384 280.75 Q 371.63 281.32 359.25 280.76 Q 355.15 280.58 352.78 277.91 Q 351.3 276.24 351.16 273.01 Q 351 269.37 351 263.75 Q 351 175.75 351 86.82 C 351 86.4 350.66 86.06 350.24 86.06 Z" stroke-linecap="round" />
</g>
		<g transform="matrix(0.2278970143 0 0 0.2278970143 -35.3399245381 32.7006935516)" id="aZ1znhYRja8HcIlmO92Pw"  >
<path style="stroke: none; stroke-width: 1; stroke-dasharray: none; stroke-linecap: butt; stroke-dashoffset: 0; stroke-linejoin: miter; stroke-miterlimit: 4; fill: rgb(255,255,255); fill-rule: nonzero; opacity: 1;" vector-effect="non-scaling-stroke"  transform=" translate(-101.0842470342, -345.9748011039)" d="M 100.81 335.31 L 95.25 349.01 Q 94.28 351.4 96.86 350.98 Q 101.22 350.29 103.23 354.17 Q 104.71 357.02 102.45 357.87 Q 101.58 358.2 99.4 358.09 Q 95.79 357.9 92.19 358.15 C 91.88 358.17 91.61 358.35 91.48 358.63 Q 90.26 361.25 89.02 363.86 Q 87.6 366.87 82.87 365.73 C 82.31 365.59 82 364.99 82.21 364.46 Q 88.81 347.74 95.9 330.6 Q 97 327.96 99.11 326.46 Q 100.84 325.23 102.67 326.3 Q 105.22 327.8 106.38 330.52 Q 112.98 345.96 119.28 361.52 Q 119.87 362.96 120.02 364.74 C 120.07 365.28 119.7 365.78 119.16 365.89 Q 116.79 366.38 115.23 365.6 Q 114.06 365.02 113.08 362.75 Q 107.25 349.14 101.94 335.31 Q 101.39 333.89 100.81 335.31 Z" stroke-linecap="round" />
</g>
		<g transform="matrix(0.2278970143 0 0 0.2278970143 -24.5442297453 32.6822396538)" id="DY568Rw-fGtlVt4Hxsynp"  >
<path style="stroke: none; stroke-width: 1; stroke-dasharray: none; stroke-linecap: butt; stroke-dashoffset: 0; stroke-linejoin: miter; stroke-miterlimit: 4; fill: rgb(255,255,255); fill-rule: nonzero; opacity: 1;" vector-effect="non-scaling-stroke"  transform=" translate(-148.455182656, -345.8938263801)" d="M 138.05 336.72 L 138.01 363.46 C 138 364.41 137.46 365.27 136.6 365.67 Q 134.58 366.62 131.71 365.66 C 131.43 365.57 131.25 365.31 131.24 365 Q 130.87 351.71 130.96 338.42 Q 131.02 330.8 131.05 330.6 Q 132.04 325.26 138.81 325.72 Q 141.22 325.88 142.41 327.98 Q 150.66 342.51 158.31 356.44 Q 159.07 357.82 159.74 356.76 Q 160 356.35 160 355.69 Q 160 343.55 160 331.41 Q 160 331.31 159.92 329.6 Q 159.7 324.84 164.38 326.16 C 165.34 326.43 166 327.3 166 328.29 Q 166 342.8 166 356.31 Q 166 361.38 165.95 361.68 Q 165.38 365.14 161.91 365.98 Q 159.44 366.58 157.27 365.33 Q 155.1 364.08 153.8 361.69 Q 146.87 348.93 139.68 336.3 Q 138.06 333.45 138.05 336.72 Z" stroke-linecap="round" />
</g>
		<g transform="matrix(0.2278970143 0 0 0.2278970143 -13.6444600815 32.6324458801)" id="F7bDtUg8Lkv05pNvCwqfF"  >
<path style="stroke: none; stroke-width: 1; stroke-dasharray: none; stroke-linecap: butt; stroke-dashoffset: 0; stroke-linejoin: miter; stroke-miterlimit: 4; fill: rgb(255,255,255); fill-rule: nonzero; opacity: 1;" vector-effect="non-scaling-stroke"  transform=" translate(-196.2827932866, -345.6753339443)" d="M 186.17 358.79 L 183.73 364.72 C 183.55 365.14 183.15 365.48 182.63 365.64 Q 179.83 366.47 177.46 365.67 C 177.21 365.59 177.08 365.3 177.18 365.04 Q 183.08 349.46 189.4 334.04 Q 191.33 329.32 192.67 327.76 Q 195.9 323.98 199.59 327.9 Q 201.11 329.52 202.62 333.12 Q 208.92 348.11 214.94 363.52 Q 215.72 365.52 213.63 366.03 Q 211.16 366.63 209.52 365.19 Q 208.6 364.39 207.58 361.89 Q 202.24 348.75 197.17 335.92 Q 196.31 333.76 195.45 335.92 L 190.18 349.05 Q 189.23 351.41 191.74 351 Q 195.11 350.45 197.27 352.42 Q 198.74 353.77 198.91 355.57 Q 199.16 358.35 195 358.07 Q 190.88 357.78 186.8 358.25 C 186.54 358.28 186.29 358.49 186.17 358.79 Z" stroke-linecap="round" />
</g>
		<g transform="matrix(0.2278970143 0 0 0.2278970143 -3.4937260636 32.7408266257)" id="zYSzOGF5v5p2KapqfOlhj"  >
<path style="stroke: none; stroke-width: 1; stroke-dasharray: none; stroke-linecap: butt; stroke-dashoffset: 0; stroke-linejoin: miter; stroke-miterlimit: 4; fill: rgb(255,255,255); fill-rule: nonzero; opacity: 1;" vector-effect="non-scaling-stroke"  transform=" translate(-240.8236752682, -346.1509029025)" d="M 232.28 364.42 Q 229.02 362.3 227.29 359.07 Q 226 356.65 226 352.18 Q 226 339.47 226 326.75 C 226 326.37 226.28 326.06 226.61 326.07 L 231.44 326.22 Q 233 326.27 233 328.4 Q 233 340.49 233 351.1 Q 233 355.5 233.09 355.88 Q 233.78 358.87 237.75 358.92 Q 245 359 252.49 359 Q 254.36 359 254.83 360.81 Q 256.27 366.43 250.96 366.13 Q 248.61 366 248.53 366 Q 243.64 366 238.75 366 Q 234.72 366 232.28 364.42 Z" stroke-linecap="round" />
</g>
		<g transform="matrix(0.2278970143 0 0 0.2278970143 2.8136257096 32.6882045437)" id="GUJTwFHenHizD_Q4YCfaB"  >
<path style="stroke: none; stroke-width: 1; stroke-dasharray: none; stroke-linecap: butt; stroke-dashoffset: 0; stroke-linejoin: miter; stroke-miterlimit: 4; fill: rgb(255,255,255); fill-rule: nonzero; opacity: 1;" vector-effect="non-scaling-stroke"  transform=" translate(-3.5, -19.87)" d="M 0 39.74 L 0 0 L 7 0 L 7 39.74 z" stroke-linecap="round" />
</g>
		<g transform="matrix(0.2278970143 0 0 0.2278970143 9.9919922376 32.7392202236)" id="aVMWS2WClAxPQYC6fkkBy"  >
<path style="stroke: none; stroke-width: 1; stroke-dasharray: none; stroke-linecap: butt; stroke-dashoffset: 0; stroke-linejoin: miter; stroke-miterlimit: 4; fill: rgb(255,255,255); fill-rule: nonzero; opacity: 1;" vector-effect="non-scaling-stroke"  transform=" translate(-299.9982912351, -346.1438540953)" d="M 295.44 333.05 L 283.96 333 C 283.62 333 283.32 332.78 283.23 332.47 Q 282.29 329.3 283.79 326.74 C 283.95 326.47 284.24 326.3 284.57 326.29 Q 298.03 325.8 311.5 325.99 Q 311.58 325.99 313.49 325.9 Q 318.06 325.68 316.4 331.38 C 316.12 332.34 315.23 333 314.23 333 L 303.66 333 C 303.3 333 303 333.3 303 333.66 L 303 363.32 Q 303 365.68 300.66 366.05 Q 295.59 366.86 295.88 362.1 Q 296 359.97 296 359.89 Q 296.04 346.72 295.94 333.55 C 295.94 333.27 295.72 333.05 295.44 333.05 Z" stroke-linecap="round" />
</g>
		<g transform="matrix(0.2278970143 0 0 0.2278970143 16.9432405962 32.7041573347)" id="zZjo8oZjDkBfxD_u7eU_Q"  >
<path style="stroke: none; stroke-width: 1; stroke-dasharray: none; stroke-linecap: butt; stroke-dashoffset: 0; stroke-linejoin: miter; stroke-miterlimit: 4; fill: rgb(255,255,255); fill-rule: nonzero; opacity: 1;" vector-effect="non-scaling-stroke"  transform=" translate(-3.49, -19.97)" d="M 0 39.94 L 0 0 L 6.98 0 L 6.98 39.94 z" stroke-linecap="round" />
</g>
		<g transform="matrix(0.2278970143 0 0 0.2278970143 23.7530045365 32.7064363048)" id="-XsEiXnZe0Oe_rIgUwLQG"  >
<path style="stroke: none; stroke-width: 1; stroke-dasharray: none; stroke-linecap: butt; stroke-dashoffset: 0; stroke-linejoin: miter; stroke-miterlimit: 4; fill: rgb(255,255,255); fill-rule: nonzero; opacity: 1;" vector-effect="non-scaling-stroke"  transform=" translate(-360.3808826489, -346)" d="M 350.56 365.06 Q 346.07 362.08 345.15 357.06 Q 344.99 356.21 344.99 347.92 Q 344.98 341.75 345.04 335.58 Q 345.06 333.02 346.24 331.38 Q 348.12 328.78 351.33 326.58 C 351.88 326.2 352.52 326 353.18 326 L 372.64 326 C 373.65 326 374.54 326.68 374.79 327.66 Q 376.32 333.5 370.82 333.12 Q 368.81 332.98 368.66 332.98 Q 361.24 332.87 354.34 333.22 Q 351 333.39 351 336.73 Q 351 345.75 351 354.75 Q 351 357.4 352.96 358.44 Q 354.01 359 356.64 359 Q 362.85 359 369.06 359 Q 369.16 359 370.93 358.93 Q 376.47 358.69 374.81 364.28 Q 374.3 366 372.5 366 L 353.67 366 Q 351.97 366 350.56 365.06 Z" stroke-linecap="round" />
</g>
		<g transform="matrix(0.2278970143 0 0 0.2278970143 33.8825282863 32.6743702747)" id="ey5lZHmq3qraJQRn62A-n"  >
<path style="stroke: none; stroke-width: 1; stroke-dasharray: none; stroke-linecap: butt; stroke-dashoffset: 0; stroke-linejoin: miter; stroke-miterlimit: 4; fill: rgb(255,255,255); fill-rule: nonzero; opacity: 1;" vector-effect="non-scaling-stroke"  transform=" translate(-404.8286951, -345.859295962)" d="M 405.69 335.31 Q 405.07 333.66 404.31 335.31 Q 401.19 342.08 398.56 350.4 C 398.42 350.84 398.8 351.28 399.26 351.19 Q 406.67 349.77 406.75 356 Q 406.77 358 404.77 358 L 396.59 358 Q 394.76 358 394.02 360.14 L 392.3 365.13 C 392.21 365.39 391.94 365.61 391.59 365.71 Q 388.79 366.53 386.38 365.71 C 385.84 365.53 385.57 364.93 385.78 364.4 L 399.13 331.21 Q 399.63 329.97 400.55 328.95 Q 404.53 324.51 407.93 327.39 Q 409.5 328.73 411.09 332.73 Q 417.34 348.43 423.88 364.31 C 424.09 364.83 423.8 365.43 423.26 365.58 Q 419.59 366.6 417.91 365.2 Q 417.37 364.75 415.86 361.12 Q 410.52 348.32 405.69 335.31 Z" stroke-linecap="round" />
</g>
</g>
</g>
</svg>