<?xml version="1.0" encoding="UTF-8" standalone="no"?>
<!-- Created with Inkscape (http://www.inkscape.org/) -->

<svg
   version="1.1"
   id="svg2"
   xml:space="preserve"
   width="1282.3639"
   height="1159.4752"
   viewBox="0 0 1282.3639 1159.4752"
   sodipodi:docname="6694d28bd9eeb276dbabe28754b536b9.eps"
   xmlns:inkscape="http://www.inkscape.org/namespaces/inkscape"
   xmlns:sodipodi="http://sodipodi.sourceforge.net/DTD/sodipodi-0.dtd"
   xmlns="http://www.w3.org/2000/svg"
   xmlns:svg="http://www.w3.org/2000/svg"><defs
     id="defs6" /><sodipodi:namedview
     id="namedview4"
     pagecolor="#ffffff"
     bordercolor="#666666"
     borderopacity="1.0"
     inkscape:pageshadow="2"
     inkscape:pageopacity="0.0"
     inkscape:pagecheckerboard="0" /><g
     id="g8"
     inkscape:groupmode="layer"
     inkscape:label="ink_ext_XXXXXX"
     transform="matrix(1.3333333,0,0,-1.3333333,-1.8996752e-4,1159.4746)"><g
       id="g10"
       transform="scale(0.1)"><path
         d="m 2802.96,8112.8 v 365.66 c 0.02,38.13 15.34,72.28 40.3,97.31 25.02,24.96 59.16,40.27 97.3,40.29 h 803.68 c 22.09,0 40,17.91 40,40 0,22.09 -17.91,40 -40,40 v 0 h -803.68 v 0 c -59.97,0.02 -114.62,-24.41 -153.87,-63.73 -39.32,-39.25 -63.75,-93.9 -63.73,-153.87 V 8112.8 c 0,-22.1 17.91,-40 40,-40 22.09,0 40,17.9 40,40"
         style="fill:#f5eac3;fill-opacity:1;fill-rule:nonzero;stroke:none"
         id="path12" /><path
         d="m 9011.25,1671.33 c -45.8,-406.41 -103.3,-811.998 -172.5,-1216.697 -58.4,-298.203 -357.9,-507.9025 -660.5,-442.7111 -874.7,161.6991 -1755,261.2071 -2636.6,298.6091 -107.4,4.602 -214.8,8.192 -322.3,10.899 -279.8,7.101 -559.8,8 -839.7,2.5 -324.8,-6.297 -649.5,-21 -973.8,-44.2 C 2705.25,229.832 2006.05,140.531 1310.35,11.9219 1007.75,-53.2695 708.348,156.43 649.848,454.633 582.148,849.832 525.746,1245.93 480.652,1642.82 c -3.203,27.21 -6.203,54.51 -9.207,81.81 -1.597,14.39 -3.199,28.9 -4.695,43.3 -186.402,1722.5 -162.402,3456.5 71.801,5175.9 32.894,242 70,483.7 111.297,725.1 8.3,56.4 25.699,108.6 50.297,155.9 15.503,29.7 33.8,57.6 54.601,83.3 68.5,84.9 163.301,147.2 268.404,181.5 5,1.6 10,3.2 15,4.6 87.4,26.1 181.1,32.9 272.2,17.4 32.7,-6 65.4,-12 98.1,-17.9 27.1,-4.9 54.3,-9.7 81.4,-14.3 163,-28.6 326.2,-55 489.5,-79.2 238.2,-35.3 476.7,-66 715.5,-92.2 1186.6,-130 2379.29,-146.9 3567.6,-50.7 640.5,51.9 1279.6,136.7 1915.8,254.3 293.8,50 614.7,-131.7 660.5,-442.7 340.2,-1988.3 397.7,-4001 172.5,-5997.6"
         style="fill:#f5eac3;fill-opacity:1;fill-rule:nonzero;stroke:none"
         id="path14" /><path
         d="M 8993.05,7362.63 V 6153.39 c 0,-79.7 -64.7,-144.3 -144.4,-144.3 l -2322.2,-63.26 v 1561.2 h 2322.2 c 79.7,0 144.4,-64.7 144.4,-144.4"
         style="fill:#ebc370;fill-opacity:1;fill-rule:nonzero;stroke:none"
         id="path16" /><path
         d="m 6378.75,2848.43 c 0,-132 -107.1,-239.1 -239.1,-239.1 l -3205.7,-144.5 c -132.1,0 -239.1,107.1 -239.1,239.1 v 5204.1 c 1186.6,-130 2379.3,-146.9 3567.6,-50.7 l 116.3,-5008.9"
         style="fill:#ebc370;fill-opacity:1;fill-rule:nonzero;stroke:none"
         id="path18" /><path
         d="m 6526.45,8145.33 v -5296.9 c 0,-132 -107,-239.1 -239.1,-239.1 h -3086.1 c -132.1,0 -239.1,107.1 -239.1,239.1 v 5296.9 c 0,132 107,239.1 239.1,239.1 h 3086.1 c 132.1,0 239.1,-107.1 239.1,-239.1"
         style="fill:#fbf3f9;fill-opacity:1;fill-rule:nonzero;stroke:none"
         id="path20" /><path
         d="m 3271.89,3888.73 c -30.26,-16.42 -133.96,-165.42 -200.45,-240.16 -69.76,31.89 -242.52,51.57 -293.46,-5.78 -50.93,-57.36 -75.05,-133 -97.85,-206.24 -8.81,-28.3 -17.69,-57.04 -18.41,-86.66 -0.72,-29.61 7.79,-60.77 29.21,-81.24 23.9,-22.84 58.76,-28.59 90.74,-37.01 31.97,-8.42 59.06,-16.99 70.43,-48.03 11.01,5.18 26.74,18.95 45.92,39.24 76.8,24.39 149.65,61.22 214.44,109.13 12.22,9.04 25.02,19.84 27.59,34.81 2.28,13.25 -4.08,26.29 -10.26,38.22 -12.22,23.6 -23.58,48.09 -36.93,71.14 78.07,112.04 159.7,237.8 222.76,342.7 29.43,48.97 6.48,97.16 -43.73,69.88"
         style="fill:#dc8046;fill-opacity:1;fill-rule:nonzero;stroke:none"
         id="path22" /><path
         d="m 2923.6,3183.42 c -277.2,-466.5 -801.95,-1094.7 -1254.55,-1448.59 -282.9,-221.3 -669.503,-194.6 -1048.8,-140.8 -50.199,7.09 -105.305,19.19 -139.602,48.79 -3.203,27.21 -6.199,54.51 -9.203,81.81 -1.597,14.4 -3.199,28.9 -4.699,43.3 23.305,38.19 64.699,73.8 103.902,101.7 631.302,447.9 1419.052,1100.19 2057.252,1540.99 100.6,-75.5 195.1,-151.8 295.7,-227.2"
         style="fill:#fbf3f9;fill-opacity:1;fill-rule:nonzero;stroke:none"
         id="path24" /><path
         d="m 5039.71,1614.88 c -2.71,26.59 -13.07,53.39 -32.15,67.98 -19.27,14.74 -36.1,8.86 -55.2,-0.22 -17.62,-8.38 -31.56,-11.95 -52,-15.47 -26.86,-4.61 -54.72,-12.83 -77.47,-30.22 -7.82,-5.98 -15,-13.09 -21.35,-21.46 -78.58,-79.31 -152.56,-162.47 -209.65,-258.49 -7.5,-12.62 -14.96,-25.77 -16.98,-40.3 -2.97,-21.42 6.17,-42.46 15.11,-62.15 21.43,-47.19 42.85,-94.4 64.27,-141.61 70.27,3.93 140.19,14.13 208.65,30.45 16.48,3.93 33.52,8.64 48.22,16.72 22.38,10.59 42.57,30.17 56.31,53.68 25.65,43.88 34.05,98.22 41.83,150.75 8.43,56.86 16.86,113.72 25.29,170.59 3.91,26.35 7.83,53.16 5.12,79.75"
         style="fill:#dc8046;fill-opacity:1;fill-rule:nonzero;stroke:none"
         id="path26" /><path
         d="M 2541.53,6828.62 V 5226.83 c 0,-27.56 -22.34,-49.89 -49.9,-49.89 -27.56,0 -49.9,22.33 -49.9,49.89 v 1601.79 c 0,27.56 22.34,49.9 49.9,49.9 27.56,0 49.9,-22.34 49.9,-49.9"
         style="fill:#ebc370;fill-opacity:1;fill-rule:nonzero;stroke:none"
         id="path28" /><path
         d="m 8133.03,2579.84 c -173.31,-92.99 -389.69,-101.17 -569.52,-21.52 -179.83,79.66 -319.18,245.38 -366.78,436.22 -57.59,230.89 14.91,473.12 101.21,694.89 130.19,334.57 293.49,656.23 486.75,958.77 -52.26,-93.69 -71.77,-181.24 -62.32,-294.29 9.45,-113.05 77.61,-219.56 176.3,-275.51 77.8,-44.09 168.84,-56.72 254.35,-82.9 85.5,-26.18 173.14,-73.16 207.72,-155.62 56.08,-133.73 -50.2,-273.79 -127.96,-396.18 -175.92,-276.92 -196.79,-550.48 -99.75,-863.86"
         style="fill:#dc8046;fill-opacity:1;fill-rule:nonzero;stroke:none"
         id="path30" /><path
         d="m 8133.05,2579.83 -47.8,-647.5 c 0,0 -280.3,-285.1 -812.6,-47.5 l 101.5,564.4 36.8,204.9 13.8,76.59 708.3,-150.89"
         style="fill:#dc8046;fill-opacity:1;fill-rule:nonzero;stroke:none"
         id="path32" /><path
         d="m 9011.25,1671.33 c -45.8,-406.41 -103.3,-811.998 -172.5,-1216.697 -58.4,-298.203 -357.9,-507.9025 -660.5,-442.7033 -874.7,161.6913 -1755,261.1993 -2636.6,298.6013 0,0 395.5,1369.899 1731,1574.299 958.2,146.6 1505.7,-76.11 1738.6,-213.5"
         style="fill:#fbf3f9;fill-opacity:1;fill-rule:nonzero;stroke:none"
         id="path34" /><path
         d="m 7763.45,2503.83 c 0,0 -116.8,-153.2 -389.3,-54.6 l 36.8,204.9 c 0,0 139.9,-120.51 352.5,-150.3"
         style="fill:#c3652d;fill-opacity:1;fill-rule:nonzero;stroke:none"
         id="path36" /><path
         d="m 1313.76,2579.83 47.8,-647.5 c 0,0 280.3,-285.1 812.6,-47.5 l -101.5,564.4 -36.8,204.9 -13.79,76.59 -708.31,-150.89"
         style="fill:#dc8046;fill-opacity:1;fill-rule:nonzero;stroke:none"
         id="path38" /><path
         d="m 1683.36,2503.83 c 0,0 116.8,-153.2 389.3,-54.6 l -36.8,204.9 c 0,0 -139.9,-120.51 -352.5,-150.3"
         style="fill:#c3652d;fill-opacity:1;fill-rule:nonzero;stroke:none"
         id="path40" /><path
         d="m 7160.94,1790.28 -17.82,355.91 528.22,41.55 v -326.69 l -510.4,-70.77"
         style="fill:#fbf3f9;fill-opacity:1;fill-rule:nonzero;stroke:none"
         id="path42" /><path
         d="m 7556.28,4990.73 c 88.01,218.49 329.02,378.03 560.27,333.21 157.85,-30.59 285.25,-143.18 404.18,-251.37 106.78,-97.15 213.57,-194.3 320.34,-291.44 117.28,-106.68 234.91,-213.75 337.51,-334.6 283.29,-333.67 442.08,-770.64 439.11,-1208.33 -2.97,-437.7 -167.7,-872.48 -455.48,-1202.26 -138.54,-158.75 -316.5,-324.04 -302.29,-534.27 7.93,-117.3 77.67,-234.11 41.85,-346.1 -40.31,-126.02 -193.12,-176.097 -325.39,-178.937 -244.16,-5.254 -488.94,91.197 -663.87,261.597 -174.95,170.41 -277.8,412.57 -278.95,656.78 -1.27,267.46 112.31,520.05 178.92,779.08 100.65,391.45 90.7,809.53 -22.35,1197.19 -103.85,356.09 -387.85,737.15 -233.85,1119.45"
         style="fill:#4b2866;fill-opacity:1;fill-rule:nonzero;stroke:none"
         id="path44" /><path
         d="m 5920,1167.18 h -914.95 c -41.64,0 -75.4,33.76 -75.4,75.41 V 2421.2 c 0,41.64 33.76,75.4 75.4,75.4 H 5920 c 41.64,0 75.4,-33.76 75.4,-75.4 V 1242.59 c 0,-41.65 -33.76,-75.41 -75.4,-75.41"
         style="fill:#fbf3f9;fill-opacity:1;fill-rule:nonzero;stroke:none"
         id="path46" /><path
         d="m 5029.65,1291.3 v 1081.18 c 0,13.32 10.8,24.12 24.12,24.12 h 817.51 c 13.32,0 24.11,-10.8 24.11,-24.12 V 1291.3 c 0,-13.32 -10.79,-24.12 -24.11,-24.12 h -817.51 c -13.32,0 -24.12,10.8 -24.12,24.12"
         style="fill:#c5c3df;fill-opacity:1;fill-rule:nonzero;stroke:none"
         id="path48" /><path
         d="m 4771.93,1293.42 c -17.38,34.88 -17.52,105.78 3.09,138.87 18.96,30.43 54.28,45.76 87.46,59.34 101.63,41.61 203.26,83.22 304.89,124.82 19.66,-51.14 11.68,-112 -20.5,-156.33 -25.81,-35.56 -64.44,-59.24 -101.99,-82.04 -37.56,-22.81 -76.12,-46.64 -101.69,-82.38 -25.56,-35.74 -43.53,-91.88 -19.28,-128.52 -44.57,23.15 -136.07,94.32 -151.98,126.24"
         style="fill:#dc8046;fill-opacity:1;fill-rule:nonzero;stroke:none"
         id="path50" /><path
         d="m 4512.62,985.813 c 76.76,6.519 169.83,10.726 246.59,17.247 -26.71,64.41 -6.88,137.23 -31.87,202.34 -16.65,43.39 -42.59,85.95 -80.12,114.33 -48.71,36.82 -72.95,27.08 -93.83,-27.78 -37.16,-97.63 -55.84,-195.1 -40.77,-306.137"
         style="fill:#dc8046;fill-opacity:1;fill-rule:nonzero;stroke:none"
         id="path52" /><path
         d="m 5219.35,321.43 c -279.8,7.101 -559.8,8 -839.7,2.5 -54.5,231.601 -55.4,475.902 -1.3,707.6 135,33.3 270.6,42.4 408.8,27.4 150.9,-242.2 285.3,-493.098 432.2,-737.5"
         style="fill:#fbf3f9;fill-opacity:1;fill-rule:nonzero;stroke:none"
         id="path54" /><path
         d="m 568.637,2737.74 c -219.164,121.49 -413.43,302.03 -509.3245,533.54 -95.8945,231.51 -79.3711,516.93 77.9145,712 64.25,79.69 149.718,143.56 197.043,234.33 53.246,102.13 50.574,223.06 73.714,335.89 73.813,359.97 454.028,628.05 817.876,576.67 363.85,-51.37 654.97,-414.25 626.23,-780.58 -21.62,-275.55 -196.59,-520.32 -224.09,-795.34 -14.65,-146.43 13.41,-293.26 26.25,-439.85 12.83,-146.61 8.55,-301.84 -63.88,-429.95 -207.27,-366.56 -755.163,-94.49 -1021.733,53.29"
         style="fill:#4b2866;fill-opacity:1;fill-rule:nonzero;stroke:none"
         id="path56" /><path
         d="m 1313.78,2579.84 c 173.32,-92.99 389.69,-101.17 569.52,-21.52 179.83,79.66 319.18,245.38 366.78,436.22 57.6,230.89 -14.91,473.12 -101.21,694.89 -130.18,334.57 -293.49,656.23 -486.75,958.77 52.27,-93.69 71.77,-181.24 62.32,-294.29 -9.44,-113.05 -77.61,-219.56 -176.3,-275.51 -77.79,-44.09 -168.84,-56.72 -254.35,-82.9 -85.5,-26.18 -173.14,-73.16 -207.72,-155.62 -56.08,-133.73 50.2,-273.79 127.96,-396.18 175.92,-276.92 196.8,-550.48 99.75,-863.86"
         style="fill:#dc8046;fill-opacity:1;fill-rule:nonzero;stroke:none"
         id="path58" /><path
         d="M 3405.85,279.73 C 2705.25,229.832 2006.05,140.531 1310.35,11.9297 1007.75,-53.2695 708.352,156.43 649.848,454.633 577.551,877.02 518.047,1300.43 471.445,1724.63 c 13.703,14.4 28.5,28.1 44.301,41 270.899,221.39 738.304,366.5 1082.404,359 430.4,-9.31 828.4,-257.1 1111.8,-581.2 283.3,-324.1 468.9,-720.399 643.8,-1113.797 20.9,-47.102 41.5,-98.703 52.1,-149.903"
         style="fill:#fbf3f9;fill-opacity:1;fill-rule:nonzero;stroke:none"
         id="path60" /><path
         d="m 1248.62,2089.16 v 203.18 c 0,0 761.82,128.5 1178.86,-167.44 l 49.68,-355.24 -1228.54,319.5"
         style="fill:#fbf3f9;fill-opacity:1;fill-rule:nonzero;stroke:none"
         id="path62" /><path
         d="m 3585.85,3540.12 h -114.06 c -36.42,0 -65.94,29.52 -65.94,65.95 v 1243.69 c 0,36.41 29.52,65.94 65.94,65.94 h 114.06 c 36.42,0 65.94,-29.53 65.94,-65.94 V 3606.07 c 0,-36.43 -29.52,-65.95 -65.94,-65.95"
         style="fill:#dc8046;fill-opacity:1;fill-rule:nonzero;stroke:none"
         id="path64" /><path
         d="m 4071.2,3540.12 h -153.27 c -25.59,0 -46.34,20.75 -46.34,46.34 v 642.51 c 0,25.58 20.75,46.33 46.34,46.33 h 153.27 c 25.59,0 46.33,-20.75 46.33,-46.33 v -642.51 c 0,-25.59 -20.74,-46.34 -46.33,-46.34"
         style="fill:#ebc370;fill-opacity:1;fill-rule:nonzero;stroke:none"
         id="path66" /><path
         d="m 4525.06,3540.12 h -129.51 c -32.15,0 -58.22,26.06 -58.22,58.22 v 949.04 c 0,32.15 26.07,58.22 58.22,58.22 h 129.51 c 32.15,0 58.22,-26.07 58.22,-58.22 v -949.04 c 0,-32.16 -26.07,-58.22 -58.22,-58.22"
         style="fill:#c5c3df;fill-opacity:1;fill-rule:nonzero;stroke:none"
         id="path68" /><path
         d="m 6291.83,4945.4 h -690.3 c -16.73,0 -30.29,13.56 -30.29,30.3 v 77.23 c 0,16.73 13.56,30.29 30.29,30.29 h 690.3 c 16.74,0 30.3,-13.56 30.3,-30.29 v -77.23 c 0,-16.74 -13.56,-30.3 -30.3,-30.3"
         style="fill:#ebc370;fill-opacity:1;fill-rule:nonzero;stroke:none"
         id="path70" /><path
         d="m 6291.83,4676.29 h -961.18 c -16.74,0 -30.3,13.57 -30.3,30.3 v 21.98 c 0,16.73 13.56,30.29 30.3,30.29 h 961.18 c 16.74,0 30.3,-13.56 30.3,-30.29 v -21.98 c 0,-16.73 -13.56,-30.3 -30.3,-30.3"
         style="fill:#ebc370;fill-opacity:1;fill-rule:nonzero;stroke:none"
         id="path72" /><path
         d="m 6291.83,4485 h -961.18 c -16.74,0 -30.3,13.57 -30.3,30.3 v 21.98 c 0,16.74 13.56,30.3 30.3,30.3 h 961.18 c 16.74,0 30.3,-13.56 30.3,-30.3 v -21.98 c 0,-16.73 -13.56,-30.3 -30.3,-30.3"
         style="fill:#ebc370;fill-opacity:1;fill-rule:nonzero;stroke:none"
         id="path74" /><path
         d="m 6291.83,4293.71 h -961.18 c -16.74,0 -30.3,13.57 -30.3,30.31 V 4346 c 0,16.73 13.56,30.29 30.3,30.29 h 961.18 c 16.74,0 30.3,-13.56 30.3,-30.29 v -21.98 c 0,-16.74 -13.56,-30.31 -30.3,-30.31"
         style="fill:#ebc370;fill-opacity:1;fill-rule:nonzero;stroke:none"
         id="path76" /><path
         d="m 3604.86,5083.22 c 0,-41.99 -34.04,-76.04 -76.04,-76.04 -41.99,0 -76.04,34.05 -76.04,76.04 0,42 34.05,76.04 76.04,76.04 42,0 76.04,-34.04 76.04,-76.04"
         style="fill:#dc8046;fill-opacity:1;fill-rule:nonzero;stroke:none"
         id="path78" /><path
         d="m 4070.6,4453.52 c 0,-41.99 -34.04,-76.04 -76.04,-76.04 -41.99,0 -76.04,34.05 -76.04,76.04 0,41.99 34.05,76.04 76.04,76.04 42,0 76.04,-34.05 76.04,-76.04"
         style="fill:#ebc370;fill-opacity:1;fill-rule:nonzero;stroke:none"
         id="path80" /><path
         d="m 6526.45,7588.93 v -1561.2 h -386.7 c -79.7,0 -144.4,64.7 -144.4,144.4 v 1272.5 c 0,79.7 64.7,144.3 144.4,144.3 h 386.7"
         style="fill:#c5c3df;fill-opacity:1;fill-rule:nonzero;stroke:none"
         id="path82" /><path
         d="m 4536.34,4764.81 c 0,-42 -34.04,-76.04 -76.04,-76.04 -41.99,0 -76.04,34.04 -76.04,76.04 0,41.99 34.05,76.04 76.04,76.04 42,0 76.04,-34.05 76.04,-76.04"
         style="fill:#c5c3df;fill-opacity:1;fill-rule:nonzero;stroke:none"
         id="path84" /><path
         d="M 9180.15,6081.24 H 6271.63 c -79.72,0 -144.35,64.63 -144.35,144.36 v 1272.47 c 0,79.73 64.63,144.36 144.35,144.36 h 2908.52 c 79.72,0 144.35,-64.63 144.35,-144.36 V 6225.6 c 0,-79.73 -64.63,-144.36 -144.35,-144.36"
         style="fill:#fbf3f9;fill-opacity:1;fill-rule:nonzero;stroke:none"
         id="path86" /><path
         d="m 8910.74,6341.44 h -2369.7 c -14.93,0 -27.03,-12.1 -27.03,-27.03 v -6.54 c 0,-14.92 12.1,-27.02 27.03,-27.02 h 2369.7 c 14.93,0 27.03,12.1 27.03,27.02 v 6.54 c 0,14.93 -12.1,27.03 -27.03,27.03"
         style="fill:#ebc370;fill-opacity:1;fill-rule:nonzero;stroke:none"
         id="path88" /><path
         d="m 8879.05,7429.58 c -82.47,-145.18 -189.02,-275.72 -314.21,-386.19 -62.38,-55.06 -129.29,-104.81 -199.94,-148.78 -74.15,-46.14 -152.6,-87.55 -234.79,-117.4 -87.48,-31.78 -183.13,-51.15 -275.95,-34.21 -88.96,16.24 -167.66,62.43 -246.22,104.77 -80.92,43.6 -164.13,79.74 -254.69,97.8 -91.81,18.3 -185.99,20.36 -278.51,6.21 -168.48,-25.78 -327.35,-110.03 -445.1,-233 -14.26,-14.9 -27.87,-30.4 -40.89,-46.39 -6.82,-8.37 -8.19,-20.1 0,-28.29 7.04,-7.04 21.42,-8.41 28.28,0 106.52,130.74 255.73,223.94 420.61,260.22 89.7,19.73 183.82,22.47 274.56,8.11 91.69,-14.5 176.71,-46.71 258.44,-90.05 79.93,-42.38 158.93,-90.56 247.61,-112.51 92.44,-22.88 189,-12.8 279.35,14.41 86.34,26.01 168.68,66.13 246.57,111.22 72.64,42.06 141.65,90.28 206.53,143.51 129.95,106.6 242.55,234.66 331.39,377.36 10.87,17.46 21.35,35.14 31.5,53.02 12.74,22.41 -21.81,42.59 -34.54,20.19"
         style="fill:#dc8046;fill-opacity:1;fill-rule:nonzero;stroke:none"
         id="path90" /><path
         d="m 7955.59,6713.32 c 0,27.45 -22.25,49.7 -49.7,49.7 -27.45,0 -49.7,-22.25 -49.7,-49.7 0,-27.45 22.25,-49.7 49.7,-49.7 27.45,0 49.7,22.25 49.7,49.7"
         style="fill:#dc8046;fill-opacity:1;fill-rule:nonzero;stroke:none"
         id="path92" /><path
         d="m 6660.79,6655.98 c 0,27.45 -22.25,49.71 -49.7,49.71 -27.45,0 -49.7,-22.26 -49.7,-49.71 0,-27.44 22.25,-49.69 49.7,-49.69 27.45,0 49.7,22.25 49.7,49.69"
         style="fill:#dc8046;fill-opacity:1;fill-rule:nonzero;stroke:none"
         id="path94" /><path
         d="m 8964.64,7429.58 c 0,27.45 -22.25,49.7 -49.7,49.7 -27.45,0 -49.7,-22.25 -49.7,-49.7 0,-27.45 22.25,-49.7 49.7,-49.7 27.45,0 49.7,22.25 49.7,49.7"
         style="fill:#dc8046;fill-opacity:1;fill-rule:nonzero;stroke:none"
         id="path96" /><path
         d="m 7895.89,6623.3 h 20 v 15 h -20 z"
         style="fill:#ebc370;fill-opacity:1;fill-rule:nonzero;stroke:none"
         id="path98" /><path
         d="m 7895.89,6569.54 h 20 v 26.8828 h -20 z m 0,-53.76 h 20 v 26.8789 h -20 z m 0,-53.75 h 20 v 26.8711 h -20 z m 0,-53.76 h 20 v 26.8828 h -20 z"
         style="fill:#ebc370;fill-opacity:1;fill-rule:nonzero;stroke:none"
         id="path100" /><path
         d="m 7895.89,6366.39 h 20 v 15 h -20 z"
         style="fill:#ebc370;fill-opacity:1;fill-rule:nonzero;stroke:none"
         id="path102" /><path
         d="m 8904.94,7367.84 h 20 v 15 h -20 z"
         style="fill:#ebc370;fill-opacity:1;fill-rule:nonzero;stroke:none"
         id="path104" /><path
         d="m 8904.94,7308.05 h 20 v 29.8984 h -20 z m 0,-59.78 h 20 v 29.8906 h -20 z m 0,-59.79 h 20 v 29.8984 h -20 z m 0,-59.78 h 20 v 29.8906 h -20 z m 0,-59.79 h 20 v 29.9023 h -20 z m 0,-59.78 h 20 v 29.8867 h -20 z m 0,-59.78 h 20 v 29.8906 h -20 z m 0,-59.79 h 20 v 29.8867 h -20 z m 0,-59.78 h 20 v 29.8906 h -20 z m 0,-59.79 h 20 v 29.8906 h -20 z m 0,-59.78 h 20 v 29.8906 h -20 z m 0,-59.79 h 20 v 29.8906 h -20 z m 0,-59.78 h 20 v 29.8906 h -20 z m 0,-59.79 h 20 v 29.8906 h -20 z m 0,-59.78 h 20 v 29.8906 h -20 z m 0,-59.79 h 20 v 29.8906 h -20 z"
         style="fill:#ebc370;fill-opacity:1;fill-rule:nonzero;stroke:none"
         id="path106" /><path
         d="m 8904.94,6366.39 h 20 v 15 h -20 z"
         style="fill:#ebc370;fill-opacity:1;fill-rule:nonzero;stroke:none"
         id="path108" /><path
         d="m 6601.09,6623.3 h 20 v 15 h -20 z"
         style="fill:#ebc370;fill-opacity:1;fill-rule:nonzero;stroke:none"
         id="path110" /><path
         d="m 6601.09,6569.54 h 20 v 26.8828 h -20 z m 0,-53.76 h 20 v 26.8789 h -20 z m 0,-53.75 h 20 v 26.8711 h -20 z m 0,-53.76 h 20 v 26.8828 h -20 z"
         style="fill:#ebc370;fill-opacity:1;fill-rule:nonzero;stroke:none"
         id="path112" /><path
         d="m 6601.09,6366.39 h 20 v 15 h -20 z"
         style="fill:#ebc370;fill-opacity:1;fill-rule:nonzero;stroke:none"
         id="path114" /><path
         d="m 5586.37,5824.61 v 15 H 3483.39 c -17.31,0 -32.86,6.97 -44.22,18.32 -11.34,11.36 -18.31,26.91 -18.32,44.23 v 1499.57 c 0.01,17.32 6.98,32.86 18.32,44.23 11.36,11.34 26.9,18.31 44.22,18.32 h 2102.98 c 17.32,-0.01 32.86,-6.98 44.22,-18.32 11.34,-11.37 18.31,-26.91 18.32,-44.23 V 5902.16 c -0.01,-17.32 -6.98,-32.87 -18.32,-44.23 -11.36,-11.35 -26.9,-18.32 -44.22,-18.32 v -15 -15 c 51.12,0.01 92.53,41.43 92.54,92.55 v 1499.57 c -0.01,51.12 -41.43,92.54 -92.54,92.55 H 3483.39 c -51.11,-0.01 -92.53,-41.43 -92.54,-92.55 V 5902.16 c 0.01,-51.12 41.43,-92.54 92.54,-92.55 h 2102.98 v 15"
         style="fill:#ebc370;fill-opacity:1;fill-rule:nonzero;stroke:none"
         id="path116" /><path
         d="m 5563.95,7327.63 h -15 v -1351.4 c -0.01,-10.16 -4.08,-19.21 -10.73,-25.88 -6.67,-6.64 -15.75,-10.72 -25.97,-10.72 h -1954.8 c -10.16,0 -19.21,4.07 -25.88,10.71 -6.65,6.67 -10.71,15.73 -10.72,25.89 v 1351.4 c 0.01,10.16 4.08,19.25 10.73,25.94 6.68,6.68 15.73,10.75 25.87,10.76 h 1954.8 c 10.2,-0.01 19.27,-4.09 25.96,-10.76 6.66,-6.7 10.73,-15.78 10.74,-25.94 h 15 15 c -0.01,36.78 -29.8,66.69 -66.7,66.7 h -1954.8 c -36.84,-0.03 -66.59,-29.93 -66.6,-66.7 v -1351.4 c 0.01,-36.79 29.81,-66.6 66.6,-66.6 h 1954.8 c 18.38,-0.01 35.15,7.46 47.17,19.5 12.05,12 19.53,28.75 19.53,47.1 v 1351.4 h -15"
         style="fill:#ebc370;fill-opacity:1;fill-rule:nonzero;stroke:none"
         id="path118" /><path
         d="m 5563.95,6401.43 v -425.2 c 0,-28.5 -23.1,-51.6 -51.7,-51.6 h -1954.8 c -28.5,0 -51.6,23.1 -51.6,51.6 v 95.6 c 43.8,72.4 93.8,140.3 159.8,192.5 100.1,79 247.3,112.9 356.2,46.7 58.2,-35.5 115.3,-99.1 180.4,-78.9 33.2,10.3 56.3,41.5 67.3,74.4 11,33 11.9,68.3 14.9,102.9 8.8,101.3 36.7,202.7 94.1,286.6 57.4,84 146.5,148.9 247.1,163.9 100.5,15 210.8,-25.8 266.9,-110.5 34.4,-51.8 46.9,-114.7 57.6,-175.9 10.8,-61.2 20.9,-124.1 51.5,-178.2 30.6,-54.2 86.7,-98.6 148.8,-96.3 80.7,3 137.9,78.1 211.1,112.1 63.7,29.6 141.8,25.4 202.4,-9.7"
         style="fill:#c5c3df;fill-opacity:1;fill-rule:nonzero;stroke:none"
         id="path120" /><path
         d="m 3899.56,6834.51 -89.12,-108.08 h 40.4 v -120.14 h 97.43 v 120.14 h 40.39 l -89.1,108.08"
         style="fill:#dc8046;fill-opacity:1;fill-rule:nonzero;stroke:none"
         id="path122" /><path
         d="m 5173.91,6606.29 -89.11,108.08 h 40.4 v 120.14 h 97.43 v -120.14 h 40.39 l -89.11,-108.08"
         style="fill:#ebc370;fill-opacity:1;fill-rule:nonzero;stroke:none"
         id="path124" /><path
         d="m 3787.87,7157.68 h -42.77 c -24.28,0 -43.96,19.68 -43.96,43.96 v 42.77 c 0,24.28 19.68,43.96 43.96,43.96 h 42.77 c 24.28,0 43.96,-19.68 43.96,-43.96 v -42.77 c 0,-24.28 -19.68,-43.96 -43.96,-43.96"
         style="fill:#dc8046;fill-opacity:1;fill-rule:nonzero;stroke:none"
         id="path126" /><path
         d="m 3986.29,7157.68 h -42.77 c -24.28,0 -43.96,19.68 -43.96,43.96 v 42.77 c 0,24.28 19.68,43.96 43.96,43.96 h 42.77 c 24.28,0 43.96,-19.68 43.96,-43.96 v -42.77 c 0,-24.28 -19.68,-43.96 -43.96,-43.96"
         style="fill:#ebc370;fill-opacity:1;fill-rule:nonzero;stroke:none"
         id="path128" /><path
         d="M 6294.48,2964.4 H 3433.5 c -15.27,0 -27.65,12.37 -27.65,27.64 v 19.38 c 0,15.26 12.38,27.64 27.65,27.64 h 2860.98 c 15.27,0 27.65,-12.38 27.65,-27.64 v -19.38 c 0,-15.27 -12.38,-27.64 -27.65,-27.64"
         style="fill:#ebc370;fill-opacity:1;fill-rule:nonzero;stroke:none"
         id="path130" /><path
         d="m 5786.57,3534.53 -189.73,328.63 c -117.26,-67.71 -189.73,-193.23 -189.73,-328.63 0,-208.17 171.29,-379.46 379.46,-379.46 208.17,0 379.46,171.29 379.46,379.46 h -379.46"
         style="fill:#dc8046;fill-opacity:1;fill-rule:nonzero;stroke:none"
         id="path132" /><path
         d="m 5881.44,3617.53 h 379.46 c 0,208.17 -171.3,379.46 -379.46,379.46 -66.61,0 -132.05,-17.53 -189.74,-50.84 l 189.74,-328.62"
         style="fill:#c5c3df;fill-opacity:1;fill-rule:nonzero;stroke:none"
         id="path134" /><path
         d="m 2190.75,7610.33 c -289.4,-47.7 -592.6,17.6 -843.3,168.4 -50.6,30.3 -99.1,64.2 -144.9,101.3 -76.5,62.1 -166.4,140.3 -179.4,209.6 5,1.6 10,3.2 15,4.6 87.4,26.1 181.1,32.9 272.2,17.4 32.7,-6 65.4,-12 98.1,-17.9 27.1,-4.9 54.3,-9.7 81.4,-14.3 163,-28.6 326.2,-55 489.5,-79.2 103.7,-108.1 178.8,-243.7 211.4,-389.9"
         style="fill:#fbf3f9;fill-opacity:1;fill-rule:nonzero;stroke:none"
         id="path136" /><path
         d="m 754.746,7908.13 c 15.574,19.34 32.563,37.52 50.734,54.45 -18.148,-16.93 -35.125,-35.11 -50.734,-54.45 m 209.168,158.71 c 19.274,8.61 39.046,16.21 59.236,22.79 -20.16,-6.58 -39.943,-14.19 -59.236,-22.79"
         style="fill:#fdf8fc;fill-opacity:1;fill-rule:nonzero;stroke:none"
         id="path138" /><path
         d="m 1357.35,7101.63 c -206.9,64.8 -390.104,202.4 -509.905,383.1 -0.8,1.2 -1.597,2.5 -2.5,3.8 -51,77.7 -121.199,212.1 -144.8,336.3 15.503,29.7 33.8,57.6 54.601,83.3 v 0 c 15.609,19.34 32.586,37.52 50.734,54.45 18,16.77 37.165,32.32 57.27,46.55 10.996,7.9 22.301,15.3 33.895,22.3 21.582,13.22 44.062,25.04 67.269,35.41 19.293,8.6 39.076,16.21 59.236,22.79 v 0 0 c 13,-69.3 102.9,-147.5 179.4,-209.6 45.8,-37.1 94.3,-71 144.9,-101.3 v 0 c 8.5,-21.3 15.8,-42.8 21.5,-64.3 53.1,-198.9 20.9,-409.5 -11.6,-612.8"
         style="fill:#faf1e8;fill-opacity:1;fill-rule:nonzero;stroke:none"
         id="path140" /><path
         d="m 1347.45,7778.73 c -50.6,30.3 -99.1,64.2 -144.9,101.3 -76.5,62.1 -166.4,140.3 -179.4,209.6 5,1.6 10,3.2 15,4.6 140,-46.6 253.4,-176.4 309.3,-315.5"
         style="fill:#fbf3f9;fill-opacity:1;fill-rule:nonzero;stroke:none"
         id="path142" /><path
         d="m 844.945,7488.53 c -12.797,-227.9 -92.5,-452.1 -229.093,-635 -4.504,-6.1 -40.305,39.3 -77.301,90.3 32.894,242 70,483.7 111.297,725.1 8.3,56.4 25.699,108.6 50.3,155.9 15.5,29.7 33.797,57.6 54.598,83.3 51.699,-56.2 74.703,-140.9 84.102,-219.4 8,-66.4 10,-133.5 6.097,-200.2"
         style="fill:#fbf3f9;fill-opacity:1;fill-rule:nonzero;stroke:none"
         id="path144" /><path
         d="m 1207.65,7321.43 c -32.4,53.2 -63.8,107 -94.1,161.5 -94.4,170 -178.101,345.8 -250.8,526.2 10.996,7.9 22.301,15.3 33.895,22.3 15.203,-38 30.906,-75.8 47.101,-113.4 86.004,-198.8 185.804,-391.5 298.504,-576.4 13.4,-22.1 -21.2,-42.2 -34.6,-20.2"
         style="fill:#f5eac3;fill-opacity:1;fill-rule:nonzero;stroke:none"
         id="path146" /><path
         d="m 1828.25,7779.43 c -8.2,-8.3 -19.9,-6.8 -28.3,0 l -391.5,314.3 c 27.1,-4.9 54.3,-9.7 81.4,-14.3 112.8,-90.6 225.6,-181.2 338.4,-271.8 8.5,-6.7 7,-21.2 0,-28.2"
         style="fill:#f5eac3;fill-opacity:1;fill-rule:nonzero;stroke:none"
         id="path148" /><path
         d="m 5782.72,1831.9 c 0,176.83 -143.35,320.19 -320.19,320.19 -176.85,0 -320.21,-143.36 -320.21,-320.19 0,-176.85 143.36,-320.21 320.21,-320.21 176.84,0 320.19,143.36 320.19,320.21"
         style="fill:#fbf3f9;fill-opacity:1;fill-rule:nonzero;stroke:none"
         id="path150" /><path
         d="m 5338.76,1744.02 102.22,-79.79 c 7.89,-6.16 18.12,-8.65 27.95,-6.82 9.84,1.83 18.48,7.85 23.62,16.43 l 156.74,261.84 c 9.93,16.58 4.53,38.08 -12.05,48 -16.59,9.93 -38.08,4.54 -48.01,-12.05 l -136.4,-227.85 -71,55.42 c -15.23,11.9 -37.23,9.19 -49.12,-6.05 -11.9,-15.24 -9.19,-37.23 6.05,-49.13"
         style="fill:#ebc370;fill-opacity:1;fill-rule:nonzero;stroke:none"
         id="path152" /></g></g></svg>
